<svg version="1.1" viewBox="0.0 0.0 266.84251968503935 199.61942257217848" fill="none" stroke="none" stroke-linecap="square" stroke-miterlimit="10" xmlns:xlink="http://www.w3.org/1999/xlink" xmlns="http://www.w3.org/2000/svg"><clipPath id="p.0"><path d="m0 0l266.84253 0l0 199.61942l-266.84253 0l0 -199.61942z" clip-rule="nonzero"/></clipPath><g clip-path="url(#p.0)"><path fill="#000000" fill-opacity="0.0" d="m0 0l266.84253 0l0 199.61942l-266.84253 0z" fill-rule="evenodd"/><path fill="#000000" fill-opacity="0.0" d="m99.85696 44.401573l0 0c0 -18.995115 16.23056 -34.3937 36.25196 -34.3937l0 0c9.614624 0 18.83545 3.6236115 25.634018 10.073682c6.7985687 6.4500694 10.61795 15.19824 10.61795 24.320017l0 0c0 18.995117 -16.230545 34.3937 -36.25197 34.3937l0 0c-20.0214 0 -36.25196 -15.398582 -36.25196 -34.3937z" fill-rule="evenodd"/><path stroke="#999999" stroke-width="4.0" stroke-linejoin="round" stroke-linecap="butt" d="m99.85696 44.401573l0 0c0 -18.995115 16.23056 -34.3937 36.25196 -34.3937l0 0c9.614624 0 18.83545 3.6236115 25.634018 10.073682c6.7985687 6.4500694 10.61795 15.19824 10.61795 24.320017l0 0c0 18.995117 -16.230545 34.3937 -36.25197 34.3937l0 0c-20.0214 0 -36.25196 -15.398582 -36.25196 -34.3937z" fill-rule="evenodd"/><path fill="#666666" d="m142.7787 51.32157l-2.9375 0l-1.171875 -3.03125l-5.328125 0l-1.109375 3.03125l-2.859375 0l5.203125 -13.359375l2.84375 0l5.359375 13.359375zm-4.96875 -5.28125l-1.84375 -4.953125l-1.796875 4.953125l3.640625 0z" fill-rule="nonzero"/><path fill="#000000" fill-opacity="0.0" d="m7.1036744 153.14961l0 0c0 -18.995117 16.23056 -34.393707 36.25197 -34.393707l0 0c9.61462 0 18.83545 3.6236115 25.63401 10.073685c6.798561 6.4500732 10.617958 15.198242 10.617958 24.320023l0 0c0 18.995117 -16.23056 34.393692 -36.25197 34.393692l0 0c-20.02141 0 -36.25197 -15.398575 -36.25197 -34.393692z" fill-rule="evenodd"/><path stroke="#999999" stroke-width="4.0" stroke-linejoin="round" stroke-linecap="butt" d="m7.1036744 153.14961l0 0c0 -18.995117 16.23056 -34.393707 36.25197 -34.393707l0 0c9.61462 0 18.83545 3.6236115 25.63401 10.073685c6.798561 6.4500732 10.617958 15.198242 10.617958 24.320023l0 0c0 18.995117 -16.23056 34.393692 -36.25197 34.393692l0 0c-20.02141 0 -36.25197 -15.398575 -36.25197 -34.393692z" fill-rule="evenodd"/><path fill="#666666" d="m37.978546 146.71024l5.34375 0q1.59375 0 2.359375 0.140625q0.78125 0.125 1.390625 0.546875q0.625 0.421875 1.03125 1.125q0.40625 0.6875 0.40625 1.546875q0 0.9375 -0.5 1.734375q-0.5 0.78125 -1.375 1.171875q1.21875 0.359375 1.875 1.21875q0.65625 0.84375 0.65625 2.0q0 0.921875 -0.421875 1.78125q-0.421875 0.859375 -1.15625 1.375q-0.734375 0.515625 -1.796875 0.625q-0.6875 0.078125 -3.265625 0.09375l-4.546875 0l0 -13.359375zm2.703125 2.234375l0 3.078125l1.765625 0q1.578125 0 1.953125 -0.046875q0.703125 -0.078125 1.09375 -0.46875q0.40625 -0.40625 0.40625 -1.046875q0 -0.625 -0.34375 -1.0q-0.34375 -0.390625 -1.015625 -0.484375q-0.40625 -0.03125 -2.3125 -0.03125l-1.546875 0zm0 5.296875l0 3.578125l2.5 0q1.453125 0 1.84375 -0.078125q0.609375 -0.109375 0.984375 -0.53125q0.375 -0.421875 0.375 -1.140625q0 -0.59375 -0.296875 -1.015625q-0.28125 -0.421875 -0.84375 -0.609375q-0.546875 -0.203125 -2.390625 -0.203125l-2.171875 0z" fill-rule="nonzero"/><path fill="#000000" fill-opacity="0.0" d="m187.23491 153.14961l0 0c0 -18.995117 16.23056 -34.393707 36.25197 -34.393707l0 0c9.614624 0 18.83545 3.6236115 25.634018 10.073685c6.7985535 6.4500732 10.617935 15.198242 10.617935 24.320023l0 0c0 18.995117 -16.230545 34.393692 -36.251953 34.393692l0 0c-20.021408 0 -36.25197 -15.398575 -36.25197 -34.393692z" fill-rule="evenodd"/><path stroke="#999999" stroke-width="4.0" stroke-linejoin="round" stroke-linecap="butt" d="m187.23491 153.14961l0 0c0 -18.995117 16.23056 -34.393707 36.25197 -34.393707l0 0c9.614624 0 18.83545 3.6236115 25.634018 10.073685c6.7985535 6.4500732 10.617935 15.198242 10.617935 24.320023l0 0c0 18.995117 -16.230545 34.393692 -36.251953 34.393692l0 0c-20.021408 0 -36.25197 -15.398575 -36.25197 -34.393692z" fill-rule="evenodd"/><path fill="#666666" d="m226.65665 155.16336l2.609375 0.828125q-0.59375 2.1875 -2.0 3.25q-1.390625 1.0625 -3.546875 1.0625q-2.65625 0 -4.375 -1.8125q-1.703125 -1.828125 -1.703125 -4.984375q0 -3.328125 1.71875 -5.171875q1.71875 -1.84375 4.515625 -1.84375q2.453125 0 3.984375 1.4375q0.921875 0.859375 1.375 2.46875l-2.671875 0.640625q-0.234375 -1.046875 -0.984375 -1.640625q-0.75 -0.609375 -1.828125 -0.609375q-1.484375 0 -2.421875 1.078125q-0.921875 1.0625 -0.921875 3.4375q0 2.53125 0.90625 3.609375q0.921875 1.078125 2.375 1.078125q1.078125 0 1.84375 -0.671875q0.78125 -0.6875 1.125 -2.15625z" fill-rule="nonzero"/><path fill="#000000" fill-opacity="0.0" d="m161.74294 68.721596l61.732285 50.04724" fill-rule="evenodd"/><path stroke="#999999" stroke-width="2.0" stroke-linejoin="round" stroke-linecap="butt" d="m161.74294 68.721596l52.410797 42.490166" fill-rule="evenodd"/><path fill="#999999" stroke="#999999" stroke-width="2.0" stroke-linecap="butt" d="m212.07333 113.77786l9.130707 3.1496887l-4.96994 -8.281906z" fill-rule="evenodd"/><path fill="#000000" fill-opacity="0.0" d="m110.474915 68.721596l-67.11812 50.04724" fill-rule="evenodd"/><path stroke="#999999" stroke-width="2.0" stroke-linejoin="round" stroke-linecap="butt" d="m110.474915 68.721596l-57.498104 42.873993" fill-rule="evenodd"/><path fill="#999999" stroke="#999999" stroke-width="2.0" stroke-linecap="butt" d="m51.002094 108.94731l-5.3013725 8.073761l9.250801 -2.7772064z" fill-rule="evenodd"/><path fill="#000000" fill-opacity="0.0" d="m79.60761 153.14961l107.62205 0" fill-rule="evenodd"/><path stroke="#999999" stroke-width="2.0" stroke-linejoin="round" stroke-linecap="butt" d="m79.60761 153.14961l95.62205 0" fill-rule="evenodd"/><path fill="#999999" stroke="#999999" stroke-width="2.0" stroke-linecap="butt" d="m175.22966 156.45306l9.076187 -3.3034515l-9.076187 -3.3034668z" fill-rule="evenodd"/><path fill="#efefef" d="m168.0359 75.06562l49.175552 0l0 0c6.4421234 0 11.664505 5.2046356 11.664505 11.624878c0 6.4202423 -5.2223816 11.624886 -11.664505 11.624886l-49.175552 0l0 0c-6.4421387 0 -11.66452 -5.2046432 -11.66452 -11.624886c0 -6.4202423 5.2223816 -11.624878 11.66452 -11.624878z" fill-rule="evenodd"/><path stroke="#999999" stroke-width="3.0" stroke-linejoin="round" stroke-linecap="butt" d="m168.0359 75.06562l49.175552 0l0 0c6.4421234 0 11.664505 5.2046356 11.664505 11.624878c0 6.4202423 -5.2223816 11.624886 -11.664505 11.624886l-49.175552 0l0 0c-6.4421387 0 -11.66452 -5.2046432 -11.66452 -11.624886c0 -6.4202423 5.2223816 -11.624878 11.66452 -11.624878z" fill-rule="evenodd"/><path fill="#000000" d="m174.70006 91.4905l0 -9.546875l1.265625 0l0 8.421875l4.703125 0l0 1.125l-5.96875 0zm7.6937256 0l0 -9.546875l1.25 0l0 9.546875l-1.25 0zm3.4217377 0l0 -9.546875l1.265625 0l0 4.734375l4.734375 -4.734375l1.71875 0l-4.0 3.875l4.171875 5.671875l-1.65625 0l-3.40625 -4.828125l-1.5625 1.515625l0 3.3125l-1.265625 0zm8.96788 0l0 -9.546875l6.90625 0l0 1.125l-5.640625 0l0 2.921875l5.28125 0l0 1.125l-5.28125 0l0 3.25l5.859375 0l0 1.125l-7.125 0zm8.43663 -3.0625l1.203125 -0.109375q0.078125 0.71875 0.390625 1.1875q0.3125 0.453125 0.953125 0.734375q0.65625 0.28125 1.46875 0.28125q0.71875 0 1.265625 -0.21875q0.5625 -0.21875 0.828125 -0.578125q0.265625 -0.375 0.265625 -0.828125q0 -0.453125 -0.265625 -0.78125q-0.25 -0.328125 -0.84375 -0.5625q-0.390625 -0.15625 -1.703125 -0.46875q-1.3125 -0.3125 -1.84375 -0.59375q-0.671875 -0.359375 -1.015625 -0.890625q-0.328125 -0.53125 -0.328125 -1.1875q0 -0.71875 0.40625 -1.34375q0.40625 -0.625 1.1875 -0.953125q0.796875 -0.328125 1.765625 -0.328125q1.046875 0 1.859375 0.34375q0.8125 0.34375 1.25 1.015625q0.4375 0.65625 0.46875 1.484375l-1.203125 0.09375q-0.109375 -0.90625 -0.671875 -1.359375q-0.5625 -0.46875 -1.65625 -0.46875q-1.140625 0 -1.671875 0.421875q-0.515625 0.421875 -0.515625 1.015625q0 0.515625 0.359375 0.84375q0.375 0.328125 1.90625 0.6875q1.546875 0.34375 2.109375 0.59375q0.84375 0.390625 1.234375 0.984375q0.390625 0.578125 0.390625 1.359375q0 0.75 -0.4375 1.4375q-0.421875 0.671875 -1.25 1.046875q-0.8125 0.359375 -1.828125 0.359375q-1.296875 0 -2.171875 -0.375q-0.875 -0.375 -1.375 -1.125q-0.5 -0.765625 -0.53125 -1.71875z" fill-rule="nonzero"/><path fill="#efefef" d="m55.02015 75.06562l49.175552 0l0 0c6.442131 0 11.664505 5.2046356 11.664505 11.624878c0 6.4202423 -5.222374 11.624886 -11.664505 11.624886l-49.175552 0l0 0c-6.442127 0 -11.664505 -5.2046432 -11.664505 -11.624886c0 -6.4202423 5.222378 -11.624878 11.664505 -11.624878z" fill-rule="evenodd"/><path stroke="#999999" stroke-width="3.0" stroke-linejoin="round" stroke-linecap="butt" d="m55.02015 75.06562l49.175552 0l0 0c6.442131 0 11.664505 5.2046356 11.664505 11.624878c0 6.4202423 -5.222374 11.624886 -11.664505 11.624886l-49.175552 0l0 0c-6.442127 0 -11.664505 -5.2046432 -11.664505 -11.624886c0 -6.4202423 5.222378 -11.624878 11.664505 -11.624878z" fill-rule="evenodd"/><path fill="#000000" d="m61.68431 91.4905l0 -9.546875l1.265625 0l0 8.421875l4.703125 0l0 1.125l-5.96875 0zm7.6937256 0l0 -9.546875l1.25 0l0 9.546875l-1.25 0zm3.4217377 0l0 -9.546875l1.265625 0l0 4.734375l4.734375 -4.734375l1.71875 0l-4.0 3.875l4.171875 5.671875l-1.65625 0l-3.40625 -4.828125l-1.5625 1.515625l0 3.3125l-1.265625 0zm8.96788 0l0 -9.546875l6.90625 0l0 1.125l-5.640625 0l0 2.921875l5.28125 0l0 1.125l-5.28125 0l0 3.25l5.859375 0l0 1.125l-7.125 0zm8.43663 -3.0625l1.203125 -0.109375q0.078125 0.71875 0.390625 1.1875q0.3125 0.453125 0.953125 0.734375q0.65625 0.28125 1.46875 0.28125q0.71875 0 1.265625 -0.21875q0.5625 -0.21875 0.828125 -0.578125q0.265625 -0.375 0.265625 -0.828125q0 -0.453125 -0.265625 -0.78125q-0.25 -0.328125 -0.84375 -0.5625q-0.390625 -0.15625 -1.703125 -0.46875q-1.3125 -0.3125 -1.84375 -0.59375q-0.671875 -0.359375 -1.015625 -0.890625q-0.328125 -0.53125 -0.328125 -1.1875q0 -0.71875 0.40625 -1.34375q0.40625 -0.625 1.1875 -0.953125q0.796875 -0.328125 1.765625 -0.328125q1.046875 0 1.859375 0.34375q0.8125 0.34375 1.25 1.015625q0.4375 0.65625 0.46875 1.484375l-1.203125 0.09375q-0.109375 -0.90625 -0.671875 -1.359375q-0.5625 -0.46875 -1.65625 -0.46875q-1.140625 0 -1.671875 0.421875q-0.515625 0.421875 -0.515625 1.015625q0 0.515625 0.359375 0.84375q0.375 0.328125 1.90625 0.6875q1.546875 0.34375 2.109375 0.59375q0.84375 0.390625 1.234375 0.984375q0.390625 0.578125 0.390625 1.359375q0 0.75 -0.4375 1.4375q-0.421875 0.671875 -1.25 1.046875q-0.8125 0.359375 -1.828125 0.359375q-1.296875 0 -2.171875 -0.375q-0.875 -0.375 -1.375 -1.125q-0.5 -0.765625 -0.53125 -1.71875z" fill-rule="nonzero"/><path fill="#efefef" d="m108.8338 141.52493l49.175552 0l0 0c6.4421234 0 11.664505 5.2046356 11.664505 11.624878c0 6.4202576 -5.2223816 11.624893 -11.664505 11.624893l-49.175552 0l0 0c-6.442131 0 -11.664513 -5.2046356 -11.664513 -11.624893c0 -6.4202423 5.2223816 -11.624878 11.664513 -11.624878z" fill-rule="evenodd"/><path stroke="#999999" stroke-width="3.0" stroke-linejoin="round" stroke-linecap="butt" d="m108.8338 141.52493l49.175552 0l0 0c6.4421234 0 11.664505 5.2046356 11.664505 11.624878c0 6.4202576 -5.2223816 11.624893 -11.664505 11.624893l-49.175552 0l0 0c-6.442131 0 -11.664513 -5.2046356 -11.664513 -11.624893c0 -6.4202423 5.2223816 -11.624878 11.664513 -11.624878z" fill-rule="evenodd"/><path fill="#000000" d="m115.49796 157.94981l0 -9.546875l1.265625 0l0 8.421875l4.703125 0l0 1.125l-5.96875 0zm7.6937256 0l0 -9.546875l1.25 0l0 9.546875l-1.25 0zm3.4217377 0l0 -9.546875l1.265625 0l0 4.734375l4.7343674 -4.734375l1.71875 0l-4.0 3.875l4.171875 5.671875l-1.65625 0l-3.40625 -4.828125l-1.5624924 1.515625l0 3.3125l-1.265625 0zm8.967873 0l0 -9.546875l6.90625 0l0 1.125l-5.640625 0l0 2.921875l5.28125 0l0 1.125l-5.28125 0l0 3.25l5.859375 0l0 1.125l-7.125 0zm8.43663 -3.0625l1.203125 -0.109375q0.078125 0.71875 0.390625 1.1875q0.3125 0.453125 0.953125 0.734375q0.65625 0.28125 1.46875 0.28125q0.71875 0 1.265625 -0.21875q0.5625 -0.21875 0.828125 -0.578125q0.265625 -0.375 0.265625 -0.828125q0 -0.453125 -0.265625 -0.78125q-0.25 -0.328125 -0.84375 -0.5625q-0.390625 -0.15625 -1.703125 -0.46875q-1.3125 -0.3125 -1.84375 -0.59375q-0.671875 -0.359375 -1.015625 -0.890625q-0.328125 -0.53125 -0.328125 -1.1875q0 -0.71875 0.40625 -1.34375q0.40625 -0.625 1.1875 -0.953125q0.796875 -0.328125 1.765625 -0.328125q1.046875 0 1.859375 0.34375q0.8125 0.34375 1.25 1.015625q0.4375 0.65625 0.46875 1.484375l-1.203125 0.09375q-0.109375 -0.90625 -0.671875 -1.359375q-0.5625 -0.46875 -1.65625 -0.46875q-1.140625 0 -1.671875 0.421875q-0.515625 0.421875 -0.515625 1.015625q0 0.515625 0.359375 0.84375q0.375 0.328125 1.90625 0.6875q1.546875 0.34375 2.109375 0.59375q0.84375 0.390625 1.234375 0.984375q0.390625 0.578125 0.390625 1.359375q0 0.75 -0.4375 1.4375q-0.421875 0.671875 -1.25 1.046875q-0.8125 0.359375 -1.828125 0.359375q-1.296875 0 -2.171875 -0.375q-0.875 -0.375 -1.375 -1.125q-0.5 -0.765625 -0.53125 -1.71875z" fill-rule="nonzero"/></g></svg>