<svg version="1.1" viewBox="0.0 0.0 832.2047244094488 317.95538057742783" fill="none" stroke="none" stroke-linecap="square" stroke-miterlimit="10" xmlns:xlink="http://www.w3.org/1999/xlink" xmlns="http://www.w3.org/2000/svg"><clipPath id="p.0"><path d="m0 0l832.2047 0l0 317.95538l-832.2047 0l0 -317.95538z" clip-rule="nonzero"/></clipPath><g clip-path="url(#p.0)"><path fill="#000000" fill-opacity="0.0" d="m0 0l832.2047 0l0 317.95538l-832.2047 0z" fill-rule="evenodd"/><path fill="#000000" fill-opacity="0.0" d="m8.0 45.212597l0 0c0 -3.6355095 2.9471645 -6.582676 6.582677 -6.582676l94.96325 0l0 0l43.519684 0l22.43045 0c1.7458344 0 3.420166 0.69353104 4.654648 1.9280205c1.2344971 1.2344933 1.9280243 2.908821 1.9280243 4.6546555l0 0l33.86006 11.952827l-33.86006 -2.0788116l0 16.456692c0 3.6355133 -2.9471588 6.5826797 -6.582672 6.5826797l-22.43045 0l-43.519684 0l0 0l-94.96325 0c-3.6355124 0 -6.582677 -2.9471664 -6.582677 -6.5826797l0 -16.456692l0 -9.874016l0 0z" fill-rule="evenodd"/><path stroke="#666666" stroke-width="3.0" stroke-linejoin="round" stroke-linecap="butt" d="m8.0 45.212597l0 0c0 -3.6355095 2.9471645 -6.582676 6.582677 -6.582676l94.96325 0l0 0l43.519684 0l22.43045 0c1.7458344 0 3.420166 0.69353104 4.654648 1.9280205c1.2344971 1.2344933 1.9280243 2.908821 1.9280243 4.6546555l0 0l33.86006 11.952827l-33.86006 -2.0788116l0 16.456692c0 3.6355133 -2.9471588 6.5826797 -6.582672 6.5826797l-22.43045 0l-43.519684 0l0 0l-94.96325 0c-3.6355124 0 -6.582677 -2.9471664 -6.582677 -6.5826797l0 -16.456692l0 -9.874016l0 0z" fill-rule="evenodd"/><path fill="#666666" d="m82.257866 52.97358l3.875 0q1.296875 0 1.984375 0.1875q0.921875 0.28125 1.578125 0.984375q0.671875 0.6875 1.015625 1.6875q0.34375 1.0 0.34375 2.484375q0 1.296875 -0.328125 2.234375q-0.390625 1.140625 -1.125 1.84375q-0.546875 0.546875 -1.484375 0.84375q-0.703125 0.21875 -1.875 0.21875l-3.984375 0l0 -10.484375zm2.109375 1.765625l0 6.953125l1.59375 0q0.875 0 1.28125 -0.109375q0.515625 -0.125 0.84375 -0.421875q0.34375 -0.3125 0.5625 -1.015625q0.21875 -0.703125 0.21875 -1.921875q0 -1.21875 -0.21875 -1.859375q-0.21875 -0.65625 -0.609375 -1.015625q-0.375 -0.375 -0.96875 -0.5q-0.453125 -0.109375 -1.75 -0.109375l-0.953125 0zm9.974899 3.4375l-1.828125 -0.328125q0.296875 -1.109375 1.046875 -1.625q0.765625 -0.53125 2.234375 -0.53125q1.359375 0 2.015625 0.3125q0.65625 0.3125 0.921875 0.8125q0.265625 0.484375 0.265625 1.796875l-0.015625 2.34375q0 1.0 0.09375 1.484375q0.09375 0.46875 0.359375 1.015625l-1.984375 0q-0.078125 -0.203125 -0.203125 -0.59375q-0.046875 -0.171875 -0.0625 -0.234375q-0.515625 0.5 -1.109375 0.75q-0.578125 0.25 -1.25 0.25q-1.171875 0 -1.859375 -0.640625q-0.671875 -0.640625 -0.671875 -1.609375q0 -0.640625 0.3125 -1.140625q0.3125 -0.515625 0.859375 -0.78125q0.5625 -0.265625 1.609375 -0.46875q1.40625 -0.265625 1.953125 -0.484375l0 -0.203125q0 -0.578125 -0.296875 -0.828125q-0.28125 -0.25 -1.078125 -0.25q-0.53125 0 -0.84375 0.21875q-0.296875 0.203125 -0.46875 0.734375zm2.6875 1.625q-0.390625 0.140625 -1.234375 0.328125q-0.828125 0.171875 -1.09375 0.34375q-0.390625 0.265625 -0.390625 0.703125q0 0.421875 0.3125 0.734375q0.3125 0.296875 0.8125 0.296875q0.53125 0 1.03125 -0.359375q0.359375 -0.265625 0.484375 -0.65625q0.078125 -0.265625 0.078125 -0.984375l0 -0.40625zm10.869858 3.65625l-2.015625 0l0 -3.875q0 -1.234375 -0.125 -1.59375q-0.125 -0.359375 -0.421875 -0.5625q-0.296875 -0.203125 -0.703125 -0.203125q-0.515625 0 -0.9375 0.296875q-0.40625 0.28125 -0.5625 0.75q-0.15625 0.46875 -0.15625 1.75l0 3.4375l-2.015625 0l0 -7.59375l1.875 0l0 1.109375q1.0 -1.28125 2.5 -1.28125q0.671875 0 1.21875 0.234375q0.546875 0.234375 0.828125 0.609375q0.296875 0.375 0.40625 0.84375q0.109375 0.46875 0.109375 1.359375l0 4.71875z" fill-rule="nonzero"/><path fill="#000000" fill-opacity="0.0" d="m215.13387 64.020996l0 0c0 -27.822975 22.554977 -50.377953 50.377945 -50.377953l0 0c13.361053 0 26.174896 5.307662 35.62259 14.755361c9.447693 9.447699 14.755371 22.26153 14.755371 35.62259l0 0c0 27.822975 -22.554993 50.377953 -50.37796 50.377953l0 0c-27.822968 0 -50.377945 -22.554977 -50.377945 -50.377953z" fill-rule="evenodd"/><path stroke="#666666" stroke-width="3.0" stroke-linejoin="round" stroke-linecap="butt" d="m215.13387 64.020996l0 0c0 -27.822975 22.554977 -50.377953 50.377945 -50.377953l0 0c13.361053 0 26.174896 5.307662 35.62259 14.755361c9.447693 9.447699 14.755371 22.26153 14.755371 35.62259l0 0c0 27.822975 -22.554993 50.377953 -50.37796 50.377953l0 0c-27.822968 0 -50.377945 -22.554977 -50.377945 -50.377953z" fill-rule="evenodd"/><path fill="#666666" d="m239.95172 69.101l0 -10.484375l3.40625 0q1.921875 0 2.515625 0.15625q0.90625 0.234375 1.515625 1.03125q0.609375 0.78125 0.609375 2.03125q0 0.96875 -0.359375 1.625q-0.34375 0.65625 -0.890625 1.03125q-0.53125 0.375 -1.09375 0.5q-0.765625 0.15625 -2.203125 0.15625l-1.375 0l0 3.953125l-2.125 0zm2.125 -8.71875l0 2.984375l1.15625 0q1.25 0 1.671875 -0.15625q0.421875 -0.171875 0.65625 -0.515625q0.25 -0.359375 0.25 -0.828125q0 -0.578125 -0.34375 -0.9375q-0.328125 -0.375 -0.84375 -0.46875q-0.375 -0.078125 -1.53125 -0.078125l-1.015625 0zm12.041229 6.296875l2.0 0.34375q-0.375 1.09375 -1.21875 1.671875q-0.828125 0.578125 -2.078125 0.578125q-1.984375 0 -2.9375 -1.296875q-0.75 -1.03125 -0.75 -2.625q0 -1.875 0.984375 -2.9375q0.984375 -1.078125 2.5 -1.078125q1.6875 0 2.671875 1.125q0.984375 1.109375 0.9375 3.421875l-5.03125 0q0.015625 0.890625 0.484375 1.390625q0.46875 0.5 1.15625 0.5q0.46875 0 0.78125 -0.25q0.328125 -0.265625 0.5 -0.84375zm0.109375 -2.03125q-0.015625 -0.875 -0.453125 -1.328125q-0.421875 -0.453125 -1.03125 -0.453125q-0.671875 0 -1.09375 0.484375q-0.421875 0.46875 -0.421875 1.296875l3.0 0zm5.5729675 4.453125l-2.015625 0l0 -7.59375l1.859375 0l0 1.078125q0.484375 -0.765625 0.859375 -1.0q0.390625 -0.25 0.875 -0.25q0.6875 0 1.328125 0.375l-0.625 1.75q-0.5 -0.328125 -0.9375 -0.328125q-0.421875 0 -0.71875 0.234375q-0.296875 0.234375 -0.46875 0.84375q-0.15625 0.609375 -0.15625 2.546875l0 2.34375zm3.0630188 -2.171875l2.015625 -0.296875q0.125 0.578125 0.515625 0.890625q0.40625 0.296875 1.109375 0.296875q0.78125 0 1.171875 -0.28125q0.265625 -0.203125 0.265625 -0.546875q0 -0.21875 -0.140625 -0.375q-0.15625 -0.140625 -0.671875 -0.265625q-2.4375 -0.53125 -3.078125 -0.984375q-0.90625 -0.609375 -0.90625 -1.703125q0 -0.984375 0.78125 -1.65625q0.78125 -0.671875 2.421875 -0.671875q1.546875 0 2.3125 0.515625q0.765625 0.5 1.046875 1.484375l-1.90625 0.359375q-0.109375 -0.453125 -0.453125 -0.6875q-0.34375 -0.234375 -0.96875 -0.234375q-0.796875 0 -1.140625 0.21875q-0.234375 0.15625 -0.234375 0.40625q0 0.21875 0.203125 0.375q0.28125 0.203125 1.875 0.5625q1.609375 0.359375 2.25 0.890625q0.625 0.546875 0.625 1.5q0 1.046875 -0.875 1.796875q-0.859375 0.75 -2.578125 0.75q-1.546875 0 -2.453125 -0.625q-0.90625 -0.640625 -1.1875 -1.71875zm8.401093 -1.734375q0 -1.0 0.484375 -1.9375q0.5 -0.9375 1.40625 -1.421875q0.90625 -0.5 2.015625 -0.5q1.71875 0 2.828125 1.125q1.109375 1.109375 1.109375 2.8125q0 1.734375 -1.125 2.875q-1.109375 1.125 -2.796875 1.125q-1.046875 0 -2.0 -0.46875q-0.9375 -0.46875 -1.4375 -1.375q-0.484375 -0.921875 -0.484375 -2.234375zm2.046875 0.109375q0 1.125 0.53125 1.734375q0.546875 0.59375 1.34375 0.59375q0.78125 0 1.3125 -0.59375q0.53125 -0.609375 0.53125 -1.75q0 -1.125 -0.53125 -1.71875q-0.53125 -0.609375 -1.3125 -0.609375q-0.796875 0 -1.34375 0.609375q-0.53125 0.59375 -0.53125 1.734375zm14.280762 3.796875l-2.015625 0l0 -3.875q0 -1.234375 -0.125 -1.59375q-0.125 -0.359375 -0.421875 -0.5625q-0.296875 -0.203125 -0.703125 -0.203125q-0.515625 0 -0.9375 0.296875q-0.40625 0.28125 -0.5625 0.75q-0.15625 0.46875 -0.15625 1.75l0 3.4375l-2.015625 0l0 -7.59375l1.875 0l0 1.109375q1.0 -1.28125 2.5 -1.28125q0.671875 0 1.21875 0.234375q0.546875 0.234375 0.828125 0.609375q0.296875 0.375 0.40625 0.84375q0.109375 0.46875 0.109375 1.359375l0 4.71875z" fill-rule="nonzero"/><path fill="#000000" fill-opacity="0.0" d="m315.88977 58.377953l192.62991 0" fill-rule="evenodd"/><path stroke="#666666" stroke-width="4.0" stroke-linejoin="round" stroke-linecap="butt" d="m315.88977 58.377953l168.62991 0" fill-rule="evenodd"/><path fill="#666666" stroke="#666666" stroke-width="4.0" stroke-linecap="butt" d="m484.51968 64.984886l18.152405 -6.6069336l-18.152405 -6.60693z" fill-rule="evenodd"/><path fill="#000000" fill-opacity="0.0" d="m505.16272 58.377953l0 0c0 -27.822975 22.554993 -50.377953 50.37799 -50.377953l0 0c13.361023 0 26.174866 5.307662 35.62256 14.755362c9.447693 9.447699 14.755371 22.261526 14.755371 35.62259l0 0c0 27.822975 -22.554993 50.377953 -50.37793 50.377953l0 0c-27.822998 0 -50.37799 -22.554977 -50.37799 -50.377953z" fill-rule="evenodd"/><path stroke="#666666" stroke-width="3.0" stroke-linejoin="round" stroke-linecap="butt" d="m505.16272 58.377953l0 0c0 -27.822975 22.554993 -50.377953 50.37799 -50.377953l0 0c13.361023 0 26.174866 5.307662 35.62256 14.755362c9.447693 9.447699 14.755371 22.261526 14.755371 35.62259l0 0c0 27.822975 -22.554993 50.377953 -50.37793 50.377953l0 0c-27.822998 0 -50.37799 -22.554977 -50.37799 -50.377953z" fill-rule="evenodd"/><path fill="#666666" d="m531.7598 63.45795l0 -10.484375l3.40625 0q1.921875 0 2.515625 0.15625q0.90625 0.234375 1.515625 1.03125q0.609375 0.78125 0.609375 2.03125q0 0.96875 -0.359375 1.625q-0.34375 0.65625 -0.890625 1.03125q-0.53125 0.375 -1.09375 0.5q-0.765625 0.15625 -2.203125 0.15625l-1.375 0l0 3.953125l-2.125 0zm2.125 -8.71875l0 2.984375l1.15625 0q1.25 0 1.671875 -0.15625q0.421875 -0.171875 0.65625 -0.515625q0.25 -0.359375 0.25 -0.828125q0 -0.578125 -0.34375 -0.9375q-0.328125 -0.375 -0.84375 -0.46875q-0.375 -0.078125 -1.53125 -0.078125l-1.015625 0zm12.04126 6.296875l2.0 0.34375q-0.375 1.09375 -1.21875 1.671875q-0.828125 0.578125 -2.078125 0.578125q-1.984375 0 -2.9375 -1.296875q-0.75 -1.03125 -0.75 -2.625q0 -1.875 0.984375 -2.9375q0.984375 -1.078125 2.5 -1.078125q1.6875 0 2.671875 1.125q0.984375 1.109375 0.9375 3.421875l-5.03125 0q0.015625 0.890625 0.484375 1.390625q0.46875 0.5 1.15625 0.5q0.46875 0 0.78125 -0.25q0.328125 -0.265625 0.5 -0.84375zm0.109375 -2.03125q-0.015625 -0.875 -0.453125 -1.328125q-0.421875 -0.453125 -1.03125 -0.453125q-0.671875 0 -1.09375 0.484375q-0.421875 0.46875 -0.421875 1.296875l3.0 0zm5.572937 4.453125l-2.015625 0l0 -7.59375l1.859375 0l0 1.078125q0.484375 -0.765625 0.859375 -1.0q0.390625 -0.25 0.875 -0.25q0.6875 0 1.328125 0.375l-0.625 1.75q-0.5 -0.328125 -0.9375 -0.328125q-0.421875 0 -0.71875 0.234375q-0.296875 0.234375 -0.46875 0.84375q-0.15625 0.609375 -0.15625 2.546875l0 2.34375zm3.0630493 -2.171875l2.015625 -0.296875q0.125 0.578125 0.515625 0.890625q0.40625 0.296875 1.109375 0.296875q0.78125 0 1.171875 -0.28125q0.265625 -0.203125 0.265625 -0.546875q0 -0.21875 -0.140625 -0.375q-0.15625 -0.140625 -0.671875 -0.265625q-2.4375 -0.53125 -3.078125 -0.984375q-0.90625 -0.609375 -0.90625 -1.703125q0 -0.984375 0.78125 -1.65625q0.78125 -0.671875 2.421875 -0.671875q1.546875 0 2.3125 0.515625q0.765625 0.5 1.046875 1.484375l-1.90625 0.359375q-0.109375 -0.453125 -0.453125 -0.6875q-0.34375 -0.234375 -0.96875 -0.234375q-0.796875 0 -1.140625 0.21875q-0.234375 0.15625 -0.234375 0.40625q0 0.21875 0.203125 0.375q0.28125 0.203125 1.875 0.5625q1.609375 0.359375 2.25 0.890625q0.625 0.546875 0.625 1.5q0 1.046875 -0.875 1.796875q-0.859375 0.75 -2.578125 0.75q-1.546875 0 -2.453125 -0.625q-0.90625 -0.640625 -1.1875 -1.71875zm8.401062 -1.734375q0 -1.0 0.484375 -1.9375q0.5 -0.9375 1.40625 -1.421875q0.90625 -0.5 2.015625 -0.5q1.71875 0 2.828125 1.125q1.109375 1.109375 1.109375 2.8125q0 1.734375 -1.125 2.875q-1.109375 1.125 -2.796875 1.125q-1.046875 0 -2.0 -0.46875q-0.9375 -0.46875 -1.4375 -1.375q-0.484375 -0.921875 -0.484375 -2.234375zm2.046875 0.109375q0 1.125 0.53125 1.734375q0.546875 0.59375 1.34375 0.59375q0.78125 0 1.3125 -0.59375q0.53125 -0.609375 0.53125 -1.75q0 -1.125 -0.53125 -1.71875q-0.53125 -0.609375 -1.3125 -0.609375q-0.796875 0 -1.34375 0.609375q-0.53125 0.59375 -0.53125 1.734375zm14.280762 3.796875l-2.015625 0l0 -3.875q0 -1.234375 -0.125 -1.59375q-0.125 -0.359375 -0.421875 -0.5625q-0.296875 -0.203125 -0.703125 -0.203125q-0.515625 0 -0.9375 0.296875q-0.40625 0.28125 -0.5625 0.75q-0.15625 0.46875 -0.15625 1.75l0 3.4375l-2.015625 0l0 -7.59375l1.875 0l0 1.109375q1.0 -1.28125 2.5 -1.28125q0.671875 0 1.21875 0.234375q0.546875 0.234375 0.828125 0.609375q0.296875 0.375 0.40625 0.84375q0.109375 0.46875 0.109375 1.359375l0 4.71875z" fill-rule="nonzero"/><path fill="#000000" fill-opacity="0.0" d="m635.7323 36.34646l0 0c0 -3.6355133 2.9471436 -6.5826797 6.5826416 -6.5826797l22.430481 0l0 0l43.519653 0l94.96326 0c1.7458496 0 3.420166 0.69353104 4.654663 1.9280224c1.2344971 1.2344913 1.9280396 2.9088192 1.9280396 4.6546574l0 16.456692l0 0l0 9.874016l0 0c0 3.6355095 -2.9472046 6.582676 -6.5827026 6.582676l-94.96326 0l-43.519653 0l0 0l-22.430481 0c-3.635498 0 -6.5826416 -2.9471664 -6.5826416 -6.582676l0 0l-27.328613 1.9213524l27.328613 -11.795368z" fill-rule="evenodd"/><path stroke="#666666" stroke-width="3.0" stroke-linejoin="round" stroke-linecap="butt" d="m635.7323 36.34646l0 0c0 -3.6355133 2.9471436 -6.5826797 6.5826416 -6.5826797l22.430481 0l0 0l43.519653 0l94.96326 0c1.7458496 0 3.420166 0.69353104 4.654663 1.9280224c1.2344971 1.2344913 1.9280396 2.9088192 1.9280396 4.6546574l0 16.456692l0 0l0 9.874016l0 0c0 3.6355095 -2.9472046 6.582676 -6.5827026 6.582676l-94.96326 0l-43.519653 0l0 0l-22.430481 0c-3.635498 0 -6.5826416 -2.9471664 -6.5826416 -6.582676l0 0l-27.328613 1.9213524l27.328613 -11.795368z" fill-rule="evenodd"/><path fill="#666666" d="m719.05817 54.591812l-2.3125 0l-0.90625 -2.390625l-4.203125 0l-0.859375 2.390625l-2.25 0l4.09375 -10.484375l2.234375 0l4.203125 10.484375zm-3.90625 -4.15625l-1.4375 -3.890625l-1.421875 3.890625l2.859375 0zm11.9279785 4.15625l-2.015625 0l0 -3.875q0 -1.234375 -0.125 -1.59375q-0.125 -0.359375 -0.421875 -0.5625q-0.296875 -0.203125 -0.703125 -0.203125q-0.515625 0 -0.9375 0.296875q-0.40625 0.28125 -0.5625 0.75q-0.15625 0.46875 -0.15625 1.75l0 3.4375l-2.015625 0l0 -7.59375l1.875 0l0 1.109375q1.0 -1.28125 2.5 -1.28125q0.671875 0 1.21875 0.234375q0.546875 0.234375 0.828125 0.609375q0.296875 0.375 0.40625 0.84375q0.109375 0.46875 0.109375 1.359375l0 4.71875zm8.952637 0l-2.015625 0l0 -3.875q0 -1.234375 -0.125 -1.59375q-0.125 -0.359375 -0.421875 -0.5625q-0.296875 -0.203125 -0.703125 -0.203125q-0.515625 0 -0.9375 0.296875q-0.40625 0.28125 -0.5625 0.75q-0.15625 0.46875 -0.15625 1.75l0 3.4375l-2.015625 0l0 -7.59375l1.875 0l0 1.109375q1.0 -1.28125 2.5 -1.28125q0.671875 0 1.21875 0.234375q0.546875 0.234375 0.828125 0.609375q0.296875 0.375 0.40625 0.84375q0.109375 0.46875 0.109375 1.359375l0 4.71875z" fill-rule="nonzero"/><path fill="#000000" fill-opacity="0.0" d="m315.88977 96.67454l0 0c0 -3.6355057 2.9471436 -6.582672 6.582672 -6.582672l94.96326 0l-12.898071 -27.286251l56.417755 27.286251l22.43045 0c1.7458191 0 3.420166 0.6935272 4.654663 1.9280167c1.2344666 1.2344971 1.928009 2.908821 1.928009 4.6546555l0 0l0 0l0 9.874016l0 16.456696c0 3.6355133 -2.947174 6.582672 -6.582672 6.582672l-22.43045 0l-43.519684 0l0 0l-94.96326 0c-3.6355286 0 -6.582672 -2.9471588 -6.582672 -6.582672l0 -16.456696l0 -9.874016l0 0z" fill-rule="evenodd"/><path stroke="#666666" stroke-width="3.0" stroke-linejoin="round" stroke-linecap="butt" d="m315.88977 96.67454l0 0c0 -3.6355057 2.9471436 -6.582672 6.582672 -6.582672l94.96326 0l-12.898071 -27.286251l56.417755 27.286251l22.43045 0c1.7458191 0 3.420166 0.6935272 4.654663 1.9280167c1.2344666 1.2344971 1.928009 2.908821 1.928009 4.6546555l0 0l0 0l0 9.874016l0 16.456696c0 3.6355133 -2.947174 6.582672 -6.582672 6.582672l-22.43045 0l-43.519684 0l0 0l-94.96326 0c-3.6355286 0 -6.582672 -2.9471588 -6.582672 -6.582672l0 -16.456696l0 -9.874016l0 0z" fill-rule="evenodd"/><path fill="#666666" d="m371.2097 114.9199l-2.015625 0l0 -7.578125q-1.09375 1.03125 -2.59375 1.53125l0 -1.828125q0.796875 -0.265625 1.71875 -0.984375q0.921875 -0.71875 1.265625 -1.671875l1.625 0l0 10.53125zm3.0573425 -2.421875l1.9375 -0.21875q0.078125 0.59375 0.375 0.890625q0.296875 0.28125 0.796875 0.28125q0.625 0 1.0625 -0.578125q0.4375 -0.578125 0.546875 -2.375q-0.75 0.875 -1.890625 0.875q-1.234375 0 -2.140625 -0.953125q-0.890625 -0.953125 -0.890625 -2.484375q0 -1.59375 0.9375 -2.5625q0.953125 -0.984375 2.421875 -0.984375q1.59375 0 2.609375 1.234375q1.03125 1.234375 1.03125 4.0625q0 2.875 -1.0625 4.15625q-1.0625 1.265625 -2.78125 1.265625q-1.234375 0 -2.0 -0.65625q-0.75 -0.65625 -0.953125 -1.953125zm4.546875 -4.390625q0 -0.984375 -0.453125 -1.515625q-0.4375 -0.53125 -1.03125 -0.53125q-0.5625 0 -0.9375 0.4375q-0.359375 0.4375 -0.359375 1.4375q0 1.015625 0.390625 1.5q0.40625 0.46875 1.015625 0.46875q0.578125 0 0.96875 -0.453125q0.40625 -0.46875 0.40625 -1.34375zm3.557373 -1.671875l0 -1.859375l6.875 0l0 1.453125q-0.859375 0.84375 -1.734375 2.40625q-0.875 1.5625 -1.34375 3.328125q-0.453125 1.765625 -0.453125 3.15625l-1.9375 0q0.046875 -2.171875 0.890625 -4.4375q0.859375 -2.265625 2.28125 -4.046875l-4.578125 0zm11.541718 -2.046875q1.53125 0 2.390625 1.078125q1.015625 1.296875 1.015625 4.28125q0 2.96875 -1.03125 4.28125q-0.84375 1.0625 -2.375 1.0625q-1.53125 0 -2.46875 -1.171875q-0.9375 -1.171875 -0.9375 -4.203125q0 -2.953125 1.03125 -4.25q0.859375 -1.078125 2.375 -1.078125zm0 1.671875q-0.359375 0 -0.65625 0.234375q-0.28125 0.21875 -0.4375 0.828125q-0.203125 0.78125 -0.203125 2.625q0 1.84375 0.1875 2.53125q0.1875 0.6875 0.46875 0.921875q0.28125 0.234375 0.640625 0.234375q0.375 0 0.65625 -0.234375q0.28125 -0.234375 0.4375 -0.84375q0.21875 -0.765625 0.21875 -2.609375q0 -1.84375 -0.1875 -2.53125q-0.1875 -0.703125 -0.46875 -0.921875q-0.28125 -0.234375 -0.65625 -0.234375zm4.963623 6.0625l0 -2.015625l3.953125 0l0 2.015625l-3.953125 0zm8.068146 -7.734375q1.53125 0 2.390625 1.078125q1.015625 1.296875 1.015625 4.28125q0 2.96875 -1.03125 4.28125q-0.84375 1.0625 -2.375 1.0625q-1.53125 0 -2.46875 -1.171875q-0.9375 -1.171875 -0.9375 -4.203125q0 -2.953125 1.03125 -4.25q0.859375 -1.078125 2.375 -1.078125zm0 1.671875q-0.359375 0 -0.65625 0.234375q-0.28125 0.21875 -0.4375 0.828125q-0.203125 0.78125 -0.203125 2.625q0 1.84375 0.1875 2.53125q0.1875 0.6875 0.46875 0.921875q0.28125 0.234375 0.640625 0.234375q0.375 0 0.65625 -0.234375q0.28125 -0.234375 0.4375 -0.84375q0.21875 -0.765625 0.21875 -2.609375q0 -1.84375 -0.1875 -2.53125q-0.1875 -0.703125 -0.46875 -0.921875q-0.28125 -0.234375 -0.65625 -0.234375zm11.541718 6.984375l0 1.875l-7.046875 0q0.125 -1.0625 0.6875 -2.0q0.578125 -0.953125 2.265625 -2.515625q1.359375 -1.28125 1.671875 -1.71875q0.40625 -0.625 0.40625 -1.234375q0 -0.671875 -0.359375 -1.03125q-0.359375 -0.359375 -1.0 -0.359375q-0.625 0 -1.0 0.375q-0.375 0.375 -0.421875 1.25l-2.015625 -0.1875q0.1875 -1.671875 1.125 -2.390625q0.953125 -0.71875 2.375 -0.71875q1.546875 0 2.421875 0.84375q0.890625 0.828125 0.890625 2.078125q0 0.703125 -0.25 1.34375q-0.25 0.640625 -0.796875 1.34375q-0.375 0.46875 -1.328125 1.34375q-0.9375 0.859375 -1.203125 1.15625q-0.25 0.28125 -0.40625 0.546875l3.984375 0zm1.572998 -0.921875l0 -2.015625l3.953125 0l0 2.015625l-3.953125 0zm9.818146 2.796875l-2.015625 0l0 -7.578125q-1.09375 1.03125 -2.59375 1.53125l0 -1.828125q0.796875 -0.265625 1.71875 -0.984375q0.921875 -0.71875 1.265625 -1.671875l1.625 0l0 10.53125zm6.9479675 0l0 -2.109375l-4.296875 0l0 -1.765625l4.5625 -6.65625l1.6875 0l0 6.65625l1.296875 0l0 1.765625l-1.296875 0l0 2.109375l-1.953125 0zm0 -3.875l0 -3.59375l-2.40625 3.59375l2.40625 0z" fill-rule="nonzero"/><path fill="#000000" fill-opacity="0.0" d="m348.9449 23.543306l92.50394 0l0 34.83465l-92.50394 0z" fill-rule="evenodd"/><path fill="#666666" d="m358.97614 46.623306l0 -10.484375l3.171875 0l1.90625 7.15625l1.890625 -7.15625l3.171875 0l0 10.484375l-1.96875 0l0 -8.265625l-2.078125 8.265625l-2.046875 0l-2.078125 -8.265625l0 8.265625l-1.96875 0zm21.70877 0l-2.3125 0l-0.90625 -2.390625l-4.203125 0l-0.859375 2.390625l-2.25 0l4.09375 -10.484375l2.234375 0l4.203125 10.484375zm-3.90625 -4.15625l-1.4375 -3.890625l-1.421875 3.890625l2.859375 0zm5.037384 4.15625l0 -10.484375l4.453125 0q1.6875 0 2.4375 0.28125q0.765625 0.28125 1.21875 1.0q0.46875 0.71875 0.46875 1.65625q0 1.171875 -0.703125 1.953125q-0.6875 0.765625 -2.0625 0.96875q0.6875 0.390625 1.125 0.875q0.453125 0.484375 1.203125 1.703125l1.28125 2.046875l-2.53125 0l-1.53125 -2.28125q-0.8125 -1.21875 -1.109375 -1.53125q-0.296875 -0.328125 -0.640625 -0.4375q-0.34375 -0.125 -1.0625 -0.125l-0.4375 0l0 4.375l-2.109375 0zm2.109375 -6.046875l1.578125 0q1.515625 0 1.890625 -0.125q0.390625 -0.140625 0.59375 -0.453125q0.21875 -0.3125 0.21875 -0.78125q0 -0.53125 -0.28125 -0.859375q-0.28125 -0.328125 -0.796875 -0.421875q-0.25 -0.03125 -1.546875 -0.03125l-1.65625 0l0 2.671875zm8.474915 6.046875l0 -10.484375l4.453125 0q1.6875 0 2.4375 0.28125q0.765625 0.28125 1.21875 1.0q0.46875 0.71875 0.46875 1.65625q0 1.171875 -0.703125 1.953125q-0.6875 0.765625 -2.0625 0.96875q0.6875 0.390625 1.125 0.875q0.453125 0.484375 1.203125 1.703125l1.28125 2.046875l-2.53125 0l-1.53125 -2.28125q-0.8125 -1.21875 -1.109375 -1.53125q-0.296875 -0.328125 -0.640625 -0.4375q-0.34375 -0.125 -1.0625 -0.125l-0.4375 0l0 4.375l-2.109375 0zm2.109375 -6.046875l1.578125 0q1.515625 0 1.890625 -0.125q0.390625 -0.140625 0.59375 -0.453125q0.21875 -0.3125 0.21875 -0.78125q0 -0.53125 -0.28125 -0.859375q-0.28125 -0.328125 -0.796875 -0.421875q-0.25 -0.03125 -1.546875 -0.03125l-1.65625 0l0 2.671875zm8.396759 6.046875l0 -10.484375l2.125 0l0 10.484375l-2.125 0zm4.134491 0l0 -10.484375l7.78125 0l0 1.765625l-5.65625 0l0 2.328125l5.265625 0l0 1.765625l-5.265625 0l0 2.859375l5.859375 0l0 1.765625l-7.984375 0zm9.775604 -10.484375l3.875 0q1.296875 0 1.984375 0.1875q0.921875 0.28125 1.578125 0.984375q0.671875 0.6875 1.015625 1.6875q0.34375 1.0 0.34375 2.484375q0 1.296875 -0.328125 2.234375q-0.390625 1.140625 -1.125 1.84375q-0.546875 0.546875 -1.484375 0.84375q-0.703125 0.21875 -1.875 0.21875l-3.984375 0l0 -10.484375zm2.109375 1.765625l0 6.953125l1.59375 0q0.875 0 1.28125 -0.109375q0.515625 -0.125 0.84375 -0.421875q0.34375 -0.3125 0.5625 -1.015625q0.21875 -0.703125 0.21875 -1.921875q0 -1.21875 -0.21875 -1.859375q-0.21875 -0.65625 -0.609375 -1.015625q-0.375 -0.375 -0.96875 -0.5q-0.453125 -0.109375 -1.75 -0.109375l-0.953125 0z" fill-rule="nonzero"/><path fill="#000000" fill-opacity="0.0" d="m21.582678 222.40683l0 0c0 -3.6355133 2.9471645 -6.5826874 6.582676 -6.5826874l94.96326 0l0 0l43.51969 0l22.430435 0c1.7458344 0 3.420166 0.6935272 4.654663 1.9280243c1.2344818 1.2344971 1.9280243 2.9088287 1.9280243 4.654663l0 0l33.860046 11.95282l-33.860046 -2.0788116l0 16.456696c0 3.6355133 -2.947174 6.582672 -6.5826874 6.582672l-22.430435 0l-43.51969 0l0 0l-94.96326 0c-3.6355114 0 -6.582676 -2.9471588 -6.582676 -6.582672l0 -16.456696l0 -9.874008l0 0z" fill-rule="evenodd"/><path stroke="#666666" stroke-width="3.0" stroke-linejoin="round" stroke-linecap="butt" d="m21.582678 222.40683l0 0c0 -3.6355133 2.9471645 -6.5826874 6.582676 -6.5826874l94.96326 0l0 0l43.51969 0l22.430435 0c1.7458344 0 3.420166 0.6935272 4.654663 1.9280243c1.2344818 1.2344971 1.9280243 2.9088287 1.9280243 4.654663l0 0l33.860046 11.95282l-33.860046 -2.0788116l0 16.456696c0 3.6355133 -2.947174 6.582672 -6.5826874 6.582672l-22.430435 0l-43.51969 0l0 0l-94.96326 0c-3.6355114 0 -6.582676 -2.9471588 -6.582676 -6.582672l0 -16.456696l0 -9.874008l0 0z" fill-rule="evenodd"/><path fill="#666666" d="m79.81817 235.37093l-1.828125 -0.328125q0.296875 -1.109375 1.046875 -1.625q0.765625 -0.53125 2.234375 -0.53125q1.359375 0 2.015625 0.3125q0.65625 0.3125 0.921875 0.8125q0.265625 0.484375 0.265625 1.796875l-0.015625 2.34375q0 1.0 0.09375 1.484375q0.09375 0.46875 0.359375 1.015625l-1.984375 0q-0.078125 -0.203125 -0.203125 -0.59375q-0.046875 -0.171875 -0.0625 -0.234375q-0.515625 0.5 -1.109375 0.75q-0.578125 0.25 -1.25 0.25q-1.171875 0 -1.859375 -0.640625q-0.671875 -0.640625 -0.671875 -1.609375q0 -0.640625 0.3125 -1.140625q0.3125 -0.515625 0.859375 -0.78125q0.5625 -0.265625 1.609375 -0.46875q1.40625 -0.265625 1.953125 -0.484375l0 -0.203125q0 -0.578125 -0.296875 -0.828125q-0.28125 -0.25 -1.078125 -0.25q-0.53125 0 -0.84375 0.21875q-0.296875 0.203125 -0.46875 0.734375zm2.6875 1.625q-0.390625 0.140625 -1.234375 0.328125q-0.828125 0.171875 -1.09375 0.34375q-0.390625 0.265625 -0.390625 0.703125q0 0.421875 0.3125 0.734375q0.3125 0.296875 0.8125 0.296875q0.53125 0 1.03125 -0.359375q0.359375 -0.265625 0.484375 -0.65625q0.078125 -0.265625 0.078125 -0.984375l0 -0.40625zm10.916733 3.65625l-1.859375 0l0 -1.109375q-0.46875 0.640625 -1.109375 0.96875q-0.625 0.3125 -1.265625 0.3125q-1.3125 0 -2.25 -1.046875q-0.9375 -1.0625 -0.9375 -2.953125q0 -1.9375 0.90625 -2.9375q0.921875 -1.0 2.3125 -1.0q1.265625 0 2.203125 1.046875l0 -3.765625l2.0 0l0 10.484375zm-5.359375 -3.96875q0 1.21875 0.328125 1.765625q0.5 0.78125 1.359375 0.78125q0.703125 0 1.1875 -0.578125q0.484375 -0.59375 0.484375 -1.765625q0 -1.3125 -0.46875 -1.890625q-0.46875 -0.578125 -1.203125 -0.578125q-0.71875 0 -1.203125 0.578125q-0.484375 0.5625 -0.484375 1.6875zm7.3119965 -4.65625l0 -1.859375l2.0 0l0 1.859375l-2.0 0zm2.0 1.03125l0 7.359375q0 1.453125 -0.1875 2.046875q-0.1875 0.59375 -0.734375 0.921875q-0.53125 0.34375 -1.375 0.34375q-0.296875 0 -0.640625 -0.046875q-0.34375 -0.046875 -0.75 -0.15625l0.34375 -1.71875q0.15625 0.03125 0.28125 0.046875q0.125 0.015625 0.21875 0.015625q0.3125 0 0.5 -0.140625q0.203125 -0.125 0.265625 -0.3125q0.078125 -0.1875 0.078125 -1.109375l0 -7.25l2.0 0zm6.5094757 5.171875l2.0 0.34375q-0.375 1.09375 -1.21875 1.671875q-0.828125 0.578125 -2.078125 0.578125q-1.984375 0 -2.9375 -1.296875q-0.75 -1.03125 -0.75 -2.625q0 -1.875 0.984375 -2.9375q0.984375 -1.078125 2.5 -1.078125q1.6875 0 2.671875 1.125q0.984375 1.109375 0.9375 3.421875l-5.03125 0q0.015625 0.890625 0.484375 1.390625q0.46875 0.5 1.15625 0.5q0.46875 0 0.78125 -0.25q0.328125 -0.265625 0.5 -0.84375zm0.109375 -2.03125q-0.015625 -0.875 -0.453125 -1.328125q-0.421875 -0.453125 -1.03125 -0.453125q-0.671875 0 -1.09375 0.484375q-0.421875 0.46875 -0.421875 1.296875l3.0 0zm10.260483 -0.90625l-1.96875 0.359375q-0.109375 -0.59375 -0.46875 -0.890625q-0.34375 -0.296875 -0.90625 -0.296875q-0.75 0 -1.203125 0.515625q-0.453125 0.515625 -0.453125 1.734375q0 1.359375 0.453125 1.921875q0.453125 0.546875 1.21875 0.546875q0.578125 0 0.9375 -0.328125q0.375 -0.328125 0.515625 -1.109375l1.984375 0.328125q-0.3125 1.359375 -1.1875 2.0625q-0.875 0.6875 -2.328125 0.6875q-1.671875 0 -2.671875 -1.046875q-0.984375 -1.0625 -0.984375 -2.921875q0 -1.875 0.984375 -2.921875q1.0 -1.046875 2.703125 -1.046875q1.390625 0 2.203125 0.59375q0.828125 0.59375 1.171875 1.8125zm5.010483 -2.234375l0 1.59375l-1.375 0l0 3.0625q0 0.9375 0.03125 1.09375q0.046875 0.140625 0.1875 0.25q0.140625 0.09375 0.34375 0.09375q0.28125 0 0.8125 -0.1875l0.171875 1.5625q-0.703125 0.296875 -1.59375 0.296875q-0.546875 0 -0.984375 -0.171875q-0.421875 -0.1875 -0.640625 -0.46875q-0.203125 -0.296875 -0.28125 -0.796875q-0.0625 -0.359375 -0.0625 -1.421875l0 -3.3125l-0.921875 0l0 -1.59375l0.921875 0l0 -1.515625l2.015625 -1.171875l0 2.6875l1.375 0zm1.3962708 -1.03125l0 -1.859375l2.015625 0l0 1.859375l-2.015625 0zm0 8.625l0 -7.59375l2.015625 0l0 7.59375l-2.015625 0zm6.1657257 0l-3.0625 -7.59375l2.109375 0l1.4375 3.875l0.40625 1.296875q0.171875 -0.5 0.21875 -0.65625q0.09374237 -0.328125 0.20311737 -0.640625l1.453125 -3.875l2.0625 0l-3.015625 7.59375l-1.8124924 0zm10.4636 -2.421875l2.0 0.34375q-0.375 1.09375 -1.21875 1.671875q-0.828125 0.578125 -2.078125 0.578125q-1.984375 0 -2.9375 -1.296875q-0.75 -1.03125 -0.75 -2.625q0 -1.875 0.984375 -2.9375q0.984375 -1.078125 2.5 -1.078125q1.6875 0 2.671875 1.125q0.984375 1.109375 0.9375 3.421875l-5.03125 0q0.015625 0.890625 0.484375 1.390625q0.46875 0.5 1.15625 0.5q0.46875 0 0.78125 -0.25q0.328125 -0.265625 0.5 -0.84375zm0.109375 -2.03125q-0.015625 -0.875 -0.453125 -1.328125q-0.421875 -0.453125 -1.03125 -0.453125q-0.671875 0 -1.09375 0.484375q-0.421875 0.46875 -0.421875 1.296875l3.0 0z" fill-rule="nonzero"/><path fill="#000000" fill-opacity="0.0" d="m228.71654 241.21523l0 0c0 -27.822983 22.554977 -50.37796 50.377945 -50.37796l0 0c13.361084 0 26.174896 5.307663 35.62259 14.755371c9.447693 9.447693 14.755371 22.26152 14.755371 35.62259l0 0c0 27.822983 -22.554993 50.377945 -50.37796 50.377945l0 0c-27.822968 0 -50.377945 -22.554962 -50.377945 -50.377945z" fill-rule="evenodd"/><path stroke="#666666" stroke-width="3.0" stroke-linejoin="round" stroke-linecap="butt" d="m228.71654 241.21523l0 0c0 -27.822983 22.554977 -50.37796 50.377945 -50.37796l0 0c13.361084 0 26.174896 5.307663 35.62259 14.755371c9.447693 9.447693 14.755371 22.26152 14.755371 35.62259l0 0c0 27.822983 -22.554993 50.377945 -50.37796 50.377945l0 0c-27.822968 0 -50.377945 -22.554962 -50.377945 -50.377945z" fill-rule="evenodd"/><path fill="#666666" d="m253.56564 246.29523l0 -10.484375l2.0625 0l4.28125 7.0l0 -7.0l1.96875 0l0 10.484375l-2.125 0l-4.21875 -6.84375l0 6.84375l-1.96875 0zm10.08429 -3.90625q0 -1.0 0.484375 -1.9375q0.5 -0.9375 1.40625 -1.421875q0.90625 -0.5 2.015625 -0.5q1.71875 0 2.828125 1.125q1.109375 1.109375 1.109375 2.8125q0 1.734375 -1.125 2.875q-1.109375 1.125 -2.796875 1.125q-1.046875 0 -2.0 -0.46875q-0.9375 -0.46875 -1.4375 -1.375q-0.484375 -0.921875 -0.484375 -2.234375zm2.046875 0.109375q0 1.125 0.53125 1.734375q0.546875 0.59375 1.34375 0.59375q0.78125 0 1.3125 -0.59375q0.53125 -0.609375 0.53125 -1.75q0 -1.125 -0.53125 -1.71875q-0.53125 -0.609375 -1.3125 -0.609375q-0.796875 0 -1.34375 0.609375q-0.53125 0.59375 -0.53125 1.734375zm12.358856 3.796875l0 -1.140625q-0.40625 0.609375 -1.09375 0.96875q-0.671875 0.34375 -1.421875 0.34375q-0.765625 0 -1.375 -0.328125q-0.609375 -0.34375 -0.875 -0.953125q-0.265625 -0.609375 -0.265625 -1.6875l0 -4.796875l2.0 0l0 3.484375q0 1.609375 0.109375 1.96875q0.109375 0.359375 0.40625 0.578125q0.296875 0.203125 0.75 0.203125q0.515625 0 0.921875 -0.28125q0.40625 -0.28125 0.546875 -0.703125q0.15625 -0.421875 0.15625 -2.046875l0 -3.203125l2.015625 0l0 7.59375l-1.875 0zm10.874512 0l-2.015625 0l0 -3.875q0 -1.234375 -0.125 -1.59375q-0.125 -0.359375 -0.421875 -0.5625q-0.296875 -0.203125 -0.703125 -0.203125q-0.515625 0 -0.9375 0.296875q-0.40625 0.28125 -0.5625 0.75q-0.15625 0.46875 -0.15625 1.75l0 3.4375l-2.015625 0l0 -7.59375l1.875 0l0 1.109375q1.0 -1.28125 2.5 -1.28125q0.671875 0 1.21875 0.234375q0.546875 0.234375 0.828125 0.609375q0.296875 0.375 0.40625 0.84375q0.109375 0.46875 0.109375 1.359375l0 4.71875z" fill-rule="nonzero"/><path fill="#000000" fill-opacity="0.0" d="m329.47244 235.57217l192.62991 0" fill-rule="evenodd"/><path stroke="#666666" stroke-width="4.0" stroke-linejoin="round" stroke-linecap="butt" d="m329.47244 235.57217l168.62991 0" fill-rule="evenodd"/><path fill="#666666" stroke="#666666" stroke-width="4.0" stroke-linecap="butt" d="m498.10236 242.17911l18.152405 -6.6069336l-18.152405 -6.6069183z" fill-rule="evenodd"/><path fill="#000000" fill-opacity="0.0" d="m518.7454 235.57217l0 0c0 -27.822968 22.554993 -50.377945 50.37793 -50.377945l0 0c13.361084 0 26.174927 5.307663 35.62262 14.755356c9.447693 9.447693 14.755371 22.261536 14.755371 35.62259l0 0c0 27.822968 -22.554993 50.37796 -50.37799 50.37796l0 0c-27.822937 0 -50.37793 -22.554993 -50.37793 -50.37796z" fill-rule="evenodd"/><path stroke="#666666" stroke-width="3.0" stroke-linejoin="round" stroke-linecap="butt" d="m518.7454 235.57217l0 0c0 -27.822968 22.554993 -50.377945 50.37793 -50.377945l0 0c13.361084 0 26.174927 5.307663 35.62262 14.755356c9.447693 9.447693 14.755371 22.261536 14.755371 35.62259l0 0c0 27.822968 -22.554993 50.37796 -50.37799 50.37796l0 0c-27.822937 0 -50.37793 -22.554993 -50.37793 -50.37796z" fill-rule="evenodd"/><path fill="#666666" d="m551.49603 240.65218l0 -10.484375l2.0625 0l4.28125 7.0l0 -7.0l1.96875 0l0 10.484375l-2.125 0l-4.21875 -6.84375l0 6.84375l-1.96875 0zm10.08429 -3.90625q0 -1.0 0.484375 -1.9375q0.5 -0.9375 1.40625 -1.421875q0.90625 -0.5 2.015625 -0.5q1.71875 0 2.828125 1.125q1.109375 1.109375 1.109375 2.8125q0 1.734375 -1.125 2.875q-1.109375 1.125 -2.796875 1.125q-1.046875 0 -2.0 -0.46875q-0.9375 -0.46875 -1.4375 -1.375q-0.484375 -0.921875 -0.484375 -2.234375zm2.046875 0.109375q0 1.125 0.53125 1.734375q0.546875 0.59375 1.34375 0.59375q0.78125 0 1.3125 -0.59375q0.53125 -0.609375 0.53125 -1.75q0 -1.125 -0.53125 -1.71875q-0.53125 -0.609375 -1.3125 -0.609375q-0.796875 0 -1.34375 0.609375q-0.53125 0.59375 -0.53125 1.734375zm12.358887 3.796875l0 -1.140625q-0.40625 0.609375 -1.09375 0.96875q-0.671875 0.34375 -1.421875 0.34375q-0.765625 0 -1.375 -0.328125q-0.609375 -0.34375 -0.875 -0.953125q-0.265625 -0.609375 -0.265625 -1.6875l0 -4.796875l2.0 0l0 3.484375q0 1.609375 0.109375 1.96875q0.109375 0.359375 0.40625 0.578125q0.296875 0.203125 0.75 0.203125q0.515625 0 0.921875 -0.28125q0.40625 -0.28125 0.546875 -0.703125q0.15625 -0.421875 0.15625 -2.046875l0 -3.203125l2.015625 0l0 7.59375l-1.875 0zm10.874451 0l-2.015625 0l0 -3.875q0 -1.234375 -0.125 -1.59375q-0.125 -0.359375 -0.421875 -0.5625q-0.296875 -0.203125 -0.703125 -0.203125q-0.515625 0 -0.9375 0.296875q-0.40625 0.28125 -0.5625 0.75q-0.15625 0.46875 -0.15625 1.75l0 3.4375l-2.015625 0l0 -7.59375l1.875 0l0 1.109375q1.0 -1.28125 2.5 -1.28125q0.671875 0 1.21875 0.234375q0.546875 0.234375 0.828125 0.609375q0.296875 0.375 0.40625 0.84375q0.109375 0.46875 0.109375 1.359375l0 4.71875z" fill-rule="nonzero"/><path fill="#000000" fill-opacity="0.0" d="m649.31494 213.54068l0 0c0 -3.6355133 2.9472046 -6.582672 6.5827026 -6.582672l22.43042 0l0 0l43.519714 0l94.96326 0c1.7458496 0 3.420166 0.6935272 4.654663 1.9280243c1.2344971 1.2344818 1.9279785 2.9088135 1.9279785 4.654648l0 16.456696l0 0l0 9.874008l0 0c0 3.6355133 -2.9471436 6.5826874 -6.5826416 6.5826874l-94.96326 0l-43.519714 0l0 0l-22.43042 0c-3.635498 0 -6.5827026 -2.947174 -6.5827026 -6.5826874l0 0l-27.328613 1.9213562l27.328613 -11.795364z" fill-rule="evenodd"/><path stroke="#666666" stroke-width="3.0" stroke-linejoin="round" stroke-linecap="butt" d="m649.31494 213.54068l0 0c0 -3.6355133 2.9472046 -6.582672 6.5827026 -6.582672l22.43042 0l0 0l43.519714 0l94.96326 0c1.7458496 0 3.420166 0.6935272 4.654663 1.9280243c1.2344971 1.2344818 1.9279785 2.9088135 1.9279785 4.654648l0 16.456696l0 0l0 9.874008l0 0c0 3.6355133 -2.9471436 6.5826874 -6.5826416 6.5826874l-94.96326 0l-43.519714 0l0 0l-22.43042 0c-3.635498 0 -6.5827026 -2.947174 -6.5827026 -6.5826874l0 0l-27.328613 1.9213562l27.328613 -11.795364z" fill-rule="evenodd"/><path fill="#666666" d="m707.5505 226.50479l-1.828125 -0.328125q0.296875 -1.109375 1.046875 -1.625q0.765625 -0.53125 2.234375 -0.53125q1.359375 0 2.015625 0.3125q0.65625 0.3125 0.921875 0.8125q0.265625 0.484375 0.265625 1.796875l-0.015625 2.34375q0 1.0 0.09375 1.484375q0.09375 0.46875 0.359375 1.015625l-1.984375 0q-0.078125 -0.203125 -0.203125 -0.59375q-0.046875 -0.171875 -0.0625 -0.234375q-0.515625 0.5 -1.109375 0.75q-0.578125 0.25 -1.25 0.25q-1.171875 0 -1.859375 -0.640625q-0.671875 -0.640625 -0.671875 -1.609375q0 -0.640625 0.3125 -1.140625q0.3125 -0.515625 0.859375 -0.78125q0.5625 -0.265625 1.609375 -0.46875q1.40625 -0.265625 1.953125 -0.484375l0 -0.203125q0 -0.578125 -0.296875 -0.828125q-0.28125 -0.25 -1.078125 -0.25q-0.53125 0 -0.84375 0.21875q-0.296875 0.203125 -0.46875 0.734375zm2.6875 1.625q-0.390625 0.140625 -1.234375 0.328125q-0.828125 0.171875 -1.09375 0.34375q-0.390625 0.265625 -0.390625 0.703125q0 0.421875 0.3125 0.734375q0.3125 0.296875 0.8125 0.296875q0.53125 0 1.03125 -0.359375q0.359375 -0.265625 0.484375 -0.65625q0.078125 -0.265625 0.078125 -0.984375l0 -0.40625zm10.916687 3.65625l-1.859375 0l0 -1.109375q-0.46875 0.640625 -1.109375 0.96875q-0.625 0.3125 -1.265625 0.3125q-1.3125 0 -2.25 -1.046875q-0.9375 -1.0625 -0.9375 -2.953125q0 -1.9375 0.90625 -2.9375q0.921875 -1.0 2.3125 -1.0q1.265625 0 2.203125 1.046875l0 -3.765625l2.0 0l0 10.484375zm-5.359375 -3.96875q0 1.21875 0.328125 1.765625q0.5 0.78125 1.359375 0.78125q0.703125 0 1.1875 -0.578125q0.484375 -0.59375 0.484375 -1.765625q0 -1.3125 -0.46875 -1.890625q-0.46875 -0.578125 -1.203125 -0.578125q-0.71875 0 -1.203125 0.578125q-0.484375 0.5625 -0.484375 1.6875zm7.3120117 -4.65625l0 -1.859375l2.0 0l0 1.859375l-2.0 0zm2.0 1.03125l0 7.359375q0 1.453125 -0.1875 2.046875q-0.1875 0.59375 -0.734375 0.921875q-0.53125 0.34375 -1.375 0.34375q-0.296875 0 -0.640625 -0.046875q-0.34375 -0.046875 -0.75 -0.15625l0.34375 -1.71875q0.15625 0.03125 0.28125 0.046875q0.125 0.015625 0.21875 0.015625q0.3125 0 0.5 -0.140625q0.203125 -0.125 0.265625 -0.3125q0.078125 -0.1875 0.078125 -1.109375l0 -7.25l2.0 0zm6.5094604 5.171875l2.0 0.34375q-0.375 1.09375 -1.21875 1.671875q-0.828125 0.578125 -2.078125 0.578125q-1.984375 0 -2.9375 -1.296875q-0.75 -1.03125 -0.75 -2.625q0 -1.875 0.984375 -2.9375q0.984375 -1.078125 2.5 -1.078125q1.6875 0 2.671875 1.125q0.984375 1.109375 0.9375 3.421875l-5.03125 0q0.015625 0.890625 0.484375 1.390625q0.46875 0.5 1.15625 0.5q0.46875 0 0.78125 -0.25q0.328125 -0.265625 0.5 -0.84375zm0.109375 -2.03125q-0.015625 -0.875 -0.453125 -1.328125q-0.421875 -0.453125 -1.03125 -0.453125q-0.671875 0 -1.09375 0.484375q-0.421875 0.46875 -0.421875 1.296875l3.0 0zm10.260498 -0.90625l-1.96875 0.359375q-0.109375 -0.59375 -0.46875 -0.890625q-0.34375 -0.296875 -0.90625 -0.296875q-0.75 0 -1.203125 0.515625q-0.453125 0.515625 -0.453125 1.734375q0 1.359375 0.453125 1.921875q0.453125 0.546875 1.21875 0.546875q0.578125 0 0.9375 -0.328125q0.375 -0.328125 0.515625 -1.109375l1.984375 0.328125q-0.3125 1.359375 -1.1875 2.0625q-0.875 0.6875 -2.328125 0.6875q-1.671875 0 -2.671875 -1.046875q-0.984375 -1.0625 -0.984375 -2.921875q0 -1.875 0.984375 -2.921875q1.0 -1.046875 2.703125 -1.046875q1.390625 0 2.203125 0.59375q0.828125 0.59375 1.171875 1.8125zm5.010498 -2.234375l0 1.59375l-1.375 0l0 3.0625q0 0.9375 0.03125 1.09375q0.046875 0.140625 0.1875 0.25q0.140625 0.09375 0.34375 0.09375q0.28125 0 0.8125 -0.1875l0.171875 1.5625q-0.703125 0.296875 -1.59375 0.296875q-0.546875 0 -0.984375 -0.171875q-0.421875 -0.1875 -0.640625 -0.46875q-0.203125 -0.296875 -0.28125 -0.796875q-0.0625 -0.359375 -0.0625 -1.421875l0 -3.3125l-0.921875 0l0 -1.59375l0.921875 0l0 -1.515625l2.015625 -1.171875l0 2.6875l1.375 0zm1.3962402 -1.03125l0 -1.859375l2.015625 0l0 1.859375l-2.015625 0zm0 8.625l0 -7.59375l2.015625 0l0 7.59375l-2.015625 0zm6.1657715 0l-3.0625 -7.59375l2.109375 0l1.4375 3.875l0.40625 1.296875q0.171875 -0.5 0.21875 -0.65625q0.09375 -0.328125 0.203125 -0.640625l1.453125 -3.875l2.0625 0l-3.015625 7.59375l-1.8125 0zm10.463562 -2.421875l2.0 0.34375q-0.375 1.09375 -1.21875 1.671875q-0.828125 0.578125 -2.078125 0.578125q-1.984375 0 -2.9375 -1.296875q-0.75 -1.03125 -0.75 -2.625q0 -1.875 0.984375 -2.9375q0.984375 -1.078125 2.5 -1.078125q1.6875 0 2.671875 1.125q0.984375 1.109375 0.9375 3.421875l-5.03125 0q0.015625 0.890625 0.484375 1.390625q0.46875 0.5 1.15625 0.5q0.46875 0 0.78125 -0.25q0.328125 -0.265625 0.5 -0.84375zm0.109375 -2.03125q-0.015625 -0.875 -0.453125 -1.328125q-0.421875 -0.453125 -1.03125 -0.453125q-0.671875 0 -1.09375 0.484375q-0.421875 0.46875 -0.421875 1.296875l3.0 0z" fill-rule="nonzero"/><path fill="#000000" fill-opacity="0.0" d="m329.47244 273.86877l0 0c0 -3.6355286 2.947174 -6.582672 6.582672 -6.582672l94.96326 0l-12.898071 -27.28627l56.417755 27.28627l22.43045 0c1.7458191 0 3.420166 0.69351196 4.654663 1.928009c1.2344971 1.2344971 1.928009 2.9088135 1.928009 4.654663l0 0l0 0l0 9.873993l0 16.456696c0 3.6355286 -2.947174 6.5827026 -6.582672 6.5827026l-22.43045 0l-43.519684 0l0 0l-94.96326 0c-3.635498 0 -6.582672 -2.947174 -6.582672 -6.5827026l0 -16.456696l0 -9.873993l0 0z" fill-rule="evenodd"/><path stroke="#666666" stroke-width="3.0" stroke-linejoin="round" stroke-linecap="butt" d="m329.47244 273.86877l0 0c0 -3.6355286 2.947174 -6.582672 6.582672 -6.582672l94.96326 0l-12.898071 -27.28627l56.417755 27.28627l22.43045 0c1.7458191 0 3.420166 0.69351196 4.654663 1.928009c1.2344971 1.2344971 1.928009 2.9088135 1.928009 4.654663l0 0l0 0l0 9.873993l0 16.456696c0 3.6355286 -2.947174 6.5827026 -6.582672 6.5827026l-22.43045 0l-43.519684 0l0 0l-94.96326 0c-3.635498 0 -6.582672 -2.947174 -6.582672 -6.5827026l0 -16.456696l0 -9.873993l0 0z" fill-rule="evenodd"/><path fill="#666666" d="m395.0432 286.8329l-1.828125 -0.328125q0.296875 -1.109375 1.046875 -1.625q0.765625 -0.53125 2.234375 -0.53125q1.359375 0 2.015625 0.3125q0.65625 0.3125 0.921875 0.8125q0.265625 0.484375 0.265625 1.796875l-0.015625 2.34375q0 1.0 0.09375 1.484375q0.09375 0.46875 0.359375 1.015625l-1.984375 0q-0.078125 -0.203125 -0.203125 -0.59375q-0.046875 -0.171875 -0.0625 -0.234375q-0.515625 0.5 -1.109375 0.75q-0.578125 0.25 -1.25 0.25q-1.171875 0 -1.859375 -0.640625q-0.671875 -0.640625 -0.671875 -1.609375q0 -0.640625 0.3125 -1.140625q0.3125 -0.515625 0.859375 -0.78125q0.5625 -0.265625 1.609375 -0.46875q1.40625 -0.265625 1.953125 -0.484375l0 -0.203125q0 -0.578125 -0.296875 -0.828125q-0.28125 -0.25 -1.078125 -0.25q-0.53125 0 -0.84375 0.21875q-0.296875 0.203125 -0.46875 0.734375zm2.6875 1.625q-0.390625 0.140625 -1.234375 0.328125q-0.828125 0.171875 -1.09375 0.34375q-0.390625 0.265625 -0.390625 0.703125q0 0.421875 0.3125 0.734375q0.3125 0.296875 0.8125 0.296875q0.53125 0 1.03125 -0.359375q0.359375 -0.265625 0.484375 -0.65625q0.078125 -0.265625 0.078125 -0.984375l0 -0.40625zm10.916718 3.65625l-1.859375 0l0 -1.109375q-0.46875 0.640625 -1.109375 0.96875q-0.625 0.3125 -1.265625 0.3125q-1.3125 0 -2.25 -1.046875q-0.9375 -1.0625 -0.9375 -2.953125q0 -1.9375 0.90625 -2.9375q0.921875 -1.0 2.3125 -1.0q1.265625 0 2.203125 1.046875l0 -3.765625l2.0 0l0 10.484375zm-5.359375 -3.96875q0 1.21875 0.328125 1.765625q0.5 0.78125 1.359375 0.78125q0.703125 0 1.1875 -0.578125q0.484375 -0.59375 0.484375 -1.765625q0 -1.3125 -0.46875 -1.890625q-0.46875 -0.578125 -1.203125 -0.578125q-0.71875 0 -1.203125 0.578125q-0.484375 0.5625 -0.484375 1.6875zm9.437012 3.96875l-3.0625 -7.59375l2.109375 0l1.4375 3.875l0.40625 1.296875q0.171875 -0.5 0.21875 -0.65625q0.09375 -0.328125 0.203125 -0.640625l1.453125 -3.875l2.0625 0l-3.015625 7.59375l-1.8125 0zm10.463593 -2.421875l2.0 0.34375q-0.375 1.09375 -1.21875 1.671875q-0.828125 0.578125 -2.078125 0.578125q-1.984375 0 -2.9375 -1.296875q-0.75 -1.03125 -0.75 -2.625q0 -1.875 0.984375 -2.9375q0.984375 -1.078125 2.5 -1.078125q1.6875 0 2.671875 1.125q0.984375 1.109375 0.9375 3.421875l-5.03125 0q0.015625 0.890625 0.484375 1.390625q0.46875 0.5 1.15625 0.5q0.46875 0 0.78125 -0.25q0.328125 -0.265625 0.5 -0.84375zm0.109375 -2.03125q-0.015625 -0.875 -0.453125 -1.328125q-0.421875 -0.453125 -1.03125 -0.453125q-0.671875 0 -1.09375 0.484375q-0.421875 0.46875 -0.421875 1.296875l3.0 0zm5.572998 4.453125l-2.015625 0l0 -7.59375l1.859375 0l0 1.078125q0.484375 -0.765625 0.859375 -1.0q0.390625 -0.25 0.875 -0.25q0.6875 0 1.328125 0.375l-0.625 1.75q-0.5 -0.328125 -0.9375 -0.328125q-0.421875 0 -0.71875 0.234375q-0.296875 0.234375 -0.46875 0.84375q-0.15625 0.609375 -0.15625 2.546875l0 2.34375zm3.6879883 0l0 -10.484375l2.015625 0l0 3.765625q0.921875 -1.046875 2.203125 -1.046875q1.375 0 2.28125 1.0q0.921875 1.0 0.921875 2.890625q0 1.9375 -0.9375 3.0q-0.921875 1.046875 -2.25 1.046875q-0.640625 0 -1.28125 -0.328125q-0.625 -0.328125 -1.09375 -0.953125l0 1.109375l-1.859375 0zm2.0 -3.96875q0 1.1875 0.359375 1.75q0.53125 0.796875 1.390625 0.796875q0.671875 0 1.140625 -0.5625q0.46875 -0.578125 0.46875 -1.796875q0 -1.296875 -0.484375 -1.875q-0.46875 -0.578125 -1.203125 -0.578125q-0.71875 0 -1.203125 0.5625q-0.46875 0.5625 -0.46875 1.703125z" fill-rule="nonzero"/><path fill="#000000" fill-opacity="0.0" d="m362.52756 200.73753l78.92914 0l0 34.83464l-78.92914 0z" fill-rule="evenodd"/><path fill="#666666" d="m375.27756 223.81754l-3.75 -10.484375l2.296875 0l2.640625 7.75l2.578125 -7.75l2.25 0l-3.765625 10.484375l-2.25 0zm7.0881042 0l0 -10.484375l7.78125 0l0 1.765625l-5.65625 0l0 2.328125l5.265625 0l0 1.765625l-5.265625 0l0 2.859375l5.859375 0l0 1.765625l-7.984375 0zm9.791229 0l0 -10.484375l4.453125 0q1.6875 0 2.4375 0.28125q0.765625 0.28125 1.21875 1.0q0.46875 0.71875 0.46875 1.65625q0 1.171875 -0.703125 1.953125q-0.6875 0.765625 -2.0625 0.96875q0.6875 0.390625 1.125 0.875q0.453125 0.484375 1.203125 1.703125l1.28125 2.046875l-2.53125 0l-1.53125 -2.28125q-0.8125 -1.21875 -1.109375 -1.53125q-0.296875 -0.328125 -0.640625 -0.4375q-0.34375 -0.125 -1.0625 -0.125l-0.4375 0l0 4.375l-2.109375 0zm2.109375 -6.046875l1.578125 0q1.515625 0 1.890625 -0.125q0.390625 -0.140625 0.59375 -0.453125q0.21875 -0.3125 0.21875 -0.78125q0 -0.53125 -0.28125 -0.859375q-0.28125 -0.328125 -0.796875 -0.421875q-0.25 -0.03125 -1.546875 -0.03125l-1.65625 0l0 2.671875zm8.474915 -4.4375l4.1875 0q1.25 0 1.859375 0.109375q0.609375 0.09375 1.09375 0.421875q0.484375 0.328125 0.796875 0.875q0.328125 0.546875 0.328125 1.234375q0 0.734375 -0.40625 1.359375q-0.390625 0.609375 -1.0625 0.90625q0.953125 0.28125 1.46875 0.953125q0.515625 0.671875 0.515625 1.578125q0 0.71875 -0.328125 1.40625q-0.328125 0.671875 -0.90625 1.078125q-0.578125 0.390625 -1.421875 0.484375q-0.53125 0.0625 -2.5625 0.078125l-3.5625 0l0 -10.484375zm2.109375 1.734375l0 2.4375l1.390625 0q1.234375 0 1.546875 -0.046875q0.53125 -0.0625 0.84375 -0.375q0.3125 -0.3125 0.3125 -0.8125q0 -0.484375 -0.265625 -0.78125q-0.265625 -0.3125 -0.796875 -0.375q-0.3125 -0.046875 -1.8125 -0.046875l-1.21875 0zm0 4.171875l0 2.8125l1.96875 0q1.140625 0 1.453125 -0.0625q0.46875 -0.09375 0.765625 -0.421875q0.296875 -0.328125 0.296875 -0.890625q0 -0.46875 -0.234375 -0.796875q-0.21875 -0.328125 -0.65625 -0.484375q-0.4375 -0.15625 -1.875 -0.15625l-1.71875 0z" fill-rule="nonzero"/></g></svg>