<svg xmlns="http://www.w3.org/2000/svg" xmlns:xlink="http://www.w3.org/1999/xlink" width="272" height="203" viewbox="0 0 272 203"><path transform="translate(61.77645340453678 206) scale(1) translate(74 -165) rotate(119.0165843438658)" d="M 27 0 L 109.92281168304446 0" fill="none" stroke="#A5ABB6" stroke-width="1"></path><polygon transform="translate(61.77645340453678 206) scale(1) translate(74 -165) rotate(119.0165843438658) translate(119.37281168304446 0) rotate(0)" points="-9.45,0 -10.5,3.5 0,0 -10.5,-3.5" fill="undefined" stroke="none" stroke-width="1"></polygon><rect transform="translate(61.77645340453678 206) scale(1) translate(40.79192154022728 -105.13191488942383) rotate(299.0165843438658) translate(0 -7) translate(0 0) translate(-16.1748046875 0)" x="0" y="0" width="32.349609375" height="14" rx="2" ry="2" fill="#ffffff" stroke="none"></rect><text xml:space="preserve" transform="translate(61.77645340453678 206) scale(1) translate(40.79192154022728 -105.13191488942383) rotate(299.0165843438658) translate(0 -7) translate(0 0) translate(-16.1748046875 0)" x="2" y="9.78564453125" font-family="sans-serif" font-size="10" font-weight="normal" text-anchor="left" fill="#000000">LIKES</text><path transform="translate(61.77645340453678 206) scale(1) translate(3 -37) rotate(0)" d="M 27 0 L 105.55 0" fill="none" stroke="#A5ABB6" stroke-width="1"></path><polygon transform="translate(61.77645340453678 206) scale(1) translate(3 -37) rotate(0) translate(115 0) rotate(0)" points="-9.45,0 -10.5,3.5 0,0 -10.5,-3.5" fill="undefined" stroke="none" stroke-width="1"></polygon><rect transform="translate(61.77645340453678 206) scale(1) translate(69.275 -37) rotate(0) translate(0 -7) translate(0 0) translate(-16.1748046875 0)" x="0" y="0" width="32.349609375" height="14" rx="2" ry="2" fill="#ffffff" stroke="none"></rect><text xml:space="preserve" transform="translate(61.77645340453678 206) scale(1) translate(69.275 -37) rotate(0) translate(0 -7) translate(0 0) translate(-16.1748046875 0)" x="2" y="9.78564453125" font-family="sans-serif" font-size="10" font-weight="normal" text-anchor="left" fill="#000000">LIKES</text><path transform="translate(61.77645340453678 206) scale(1) translate(74 -165) rotate(60.9834156561342)" d="M 27 0 L 109.92281168304446 0" fill="none" stroke="#A5ABB6" stroke-width="1"></path><polygon transform="translate(61.77645340453678 206) scale(1) translate(74 -165) rotate(60.9834156561342) translate(119.37281168304446 0) rotate(0)" points="-9.45,0 -10.5,3.5 0,0 -10.5,-3.5" fill="undefined" stroke="none" stroke-width="1"></polygon><rect transform="translate(61.77645340453678 206) scale(1) translate(107.20807845977274 -105.13191488942383) rotate(60.9834156561342) translate(0 -7) translate(0 0) translate(-16.1748046875 0)" x="0" y="0" width="32.349609375" height="14" rx="2" ry="2" fill="#ffffff" stroke="none"></rect><text xml:space="preserve" transform="translate(61.77645340453678 206) scale(1) translate(107.20807845977274 -105.13191488942383) rotate(60.9834156561342) translate(0 -7) translate(0 0) translate(-16.1748046875 0)" x="2" y="9.78564453125" font-family="sans-serif" font-size="10" font-weight="normal" text-anchor="left" fill="#000000">LIKES</text><circle transform="translate(61.77645340453678 206) scale(1)" cx="74" cy="-165" r="26" fill="#4C8EDA" stroke="#2870c2" strokewidth="2"></circle><text xml:space="preserve" transform="translate(61.77645340453678 206) scale(1) translate(74 -165) scale(1) translate(0 0) translate(0 0)" x="0" y="2.78564453125" font-family="sans-serif" font-size="10" font-weight="normal" text-anchor="middle" fill="#ffffff">a</text><rect transform="translate(61.77645340453678 206) scale(1) translate(74 -165) translate(1.6532731788489269e-15 -41) translate(0 0) translate(-22.84228515625 0)" x="0" y="0" width="45.6845703125" height="14" rx="7" ry="7" fill="#808080" stroke="none"></rect><text xml:space="preserve" transform="translate(61.77645340453678 206) scale(1) translate(74 -165) translate(1.6532731788489269e-15 -41) translate(0 0) translate(-22.84228515625 0)" x="7" y="9.78564453125" font-family="sans-serif" font-size="10" font-weight="normal" text-anchor="undefined" fill="#ffffff">Person</text><circle transform="translate(61.77645340453678 206) scale(1)" cx="3" cy="-37" r="26" fill="#4C8EDA" stroke="#2870c2" strokewidth="2"></circle><text xml:space="preserve" transform="translate(61.77645340453678 206) scale(1) translate(3 -37) scale(1) translate(0 0) translate(0 0)" x="0" y="2.78564453125" font-family="sans-serif" font-size="10" font-weight="normal" text-anchor="middle" fill="#ffffff">b</text><rect transform="translate(61.77645340453678 206) scale(1) translate(3 -37) translate(-19.09188309203678 19.091883092036785) translate(0 0) translate(-45.6845703125 0)" x="0" y="0" width="45.6845703125" height="14" rx="7" ry="7" fill="#808080" stroke="none"></rect><text xml:space="preserve" transform="translate(61.77645340453678 206) scale(1) translate(3 -37) translate(-19.09188309203678 19.091883092036785) translate(0 0) translate(-45.6845703125 0)" x="7" y="9.78564453125" font-family="sans-serif" font-size="10" font-weight="normal" text-anchor="undefined" fill="#ffffff">Person</text><circle transform="translate(61.77645340453678 206) scale(1)" cx="145" cy="-37" r="26" fill="#4C8EDA" stroke="#2870c2" strokewidth="2"></circle><text xml:space="preserve" transform="translate(61.77645340453678 206) scale(1) translate(145 -37) scale(1) translate(0 0) translate(0 0)" x="0" y="2.78564453125" font-family="sans-serif" font-size="10" font-weight="normal" text-anchor="middle" fill="#ffffff">c</text><rect transform="translate(61.77645340453678 206) scale(1) translate(145 -37) translate(19.091883092036785 19.09188309203678) translate(0 0) translate(0 0)" x="0" y="0" width="45.6845703125" height="14" rx="7" ry="7" fill="#808080" stroke="none"></rect><text xml:space="preserve" transform="translate(61.77645340453678 206) scale(1) translate(145 -37) translate(19.091883092036785 19.09188309203678) translate(0 0) translate(0 0)" x="7" y="9.78564453125" font-family="sans-serif" font-size="10" font-weight="normal" text-anchor="undefined" fill="#ffffff">Person</text></svg>