<svg xmlns="http://www.w3.org/2000/svg" xmlns:xlink="http://www.w3.org/1999/xlink" width="617" height="85" viewbox="0 0 617 85"><path transform="translate(-127.0342659045368 236) scale(1) translate(247.2764534045368 -181) rotate(0)" d="M 27 0 L 156.55000000000004 0" fill="none" stroke="#A5ABB6" stroke-width="1"></path><polygon transform="translate(-127.0342659045368 236) scale(1) translate(247.2764534045368 -181) rotate(0) translate(166.00000000000003 0) rotate(0)" points="-9.45,0 -10.5,3.5 0,0 -10.5,-3.5" fill="undefined" stroke="none" stroke-width="1"></polygon><rect transform="translate(-127.0342659045368 236) scale(1) translate(339.0514534045368 -181) rotate(0) translate(0 -13) translate(0 0) translate(-26.7265625 0)" x="0" y="0" width="53.453125" height="14" rx="2" ry="2" fill="#ffffff" stroke="none"></rect><text xml:space="preserve" transform="translate(-127.0342659045368 236) scale(1) translate(339.0514534045368 -181) rotate(0) translate(0 -13) translate(0 0) translate(-26.7265625 0)" x="2" y="9.78564453125" font-family="sans-serif" font-size="10" font-weight="normal" text-anchor="left" fill="#000000">ACTED_IN</text><rect transform="translate(-127.0342659045368 236) scale(1) translate(339.0514534045368 -181) rotate(0) translate(0 -13) translate(0 14) translate(-49.30908203125 0)" x="0" y="0" width="98.6181640625" height="12" rx="0" ry="0" fill="white" stroke="none"></rect><text xml:space="preserve" transform="translate(-127.0342659045368 236) scale(1) translate(339.0514534045368 -181) rotate(0) translate(0 -13) translate(0 14) translate(-49.30908203125 0)" x="22.2314453125" y="8.78564453125" font-family="sans-serif" font-size="10" font-weight="normal" text-anchor="end" fill="#000000">role:</text><text xml:space="preserve" transform="translate(-127.0342659045368 236) scale(1) translate(339.0514534045368 -181) rotate(0) translate(0 -13) translate(0 14) translate(-49.30908203125 0)" x="25.009765625" y="8.78564453125" font-family="sans-serif" font-size="10" font-weight="normal" text-anchor="start" fill="#000000">"Woody (voice)"</text><path transform="translate(-127.0342659045368 236) scale(1) translate(440.2764534045368 -181) rotate(0)" d="M 27 0 L 156.55 0" fill="none" stroke="#A5ABB6" stroke-width="1"></path><polygon transform="translate(-127.0342659045368 236) scale(1) translate(440.2764534045368 -181) rotate(0) translate(166 0) rotate(0)" points="-9.45,0 -10.5,3.5 0,0 -10.5,-3.5" fill="undefined" stroke="none" stroke-width="1"></polygon><rect transform="translate(-127.0342659045368 236) scale(1) translate(532.0514534045368 -181) rotate(0) translate(0 -7) translate(0 0) translate(-27.5615234375 0)" x="0" y="0" width="55.123046875" height="14" rx="2" ry="2" fill="#ffffff" stroke="none"></rect><text xml:space="preserve" transform="translate(-127.0342659045368 236) scale(1) translate(532.0514534045368 -181) rotate(0) translate(0 -7) translate(0 0) translate(-27.5615234375 0)" x="2" y="9.78564453125" font-family="sans-serif" font-size="10" font-weight="normal" text-anchor="left" fill="#000000">IN_GENRE</text><circle transform="translate(-127.0342659045368 236) scale(1)" cx="247.2764534045368" cy="-181" r="26" fill="#4C8EDA" stroke="#2870c2" strokewidth="2"></circle><rect transform="translate(-127.0342659045368 236) scale(1) translate(247.2764534045368 -181) translate(-27 -29.999999999999996) translate(0 0) translate(-45.6845703125 0)" x="0" y="0" width="45.6845703125" height="14" rx="7" ry="7" fill="#808080" stroke="none"></rect><text xml:space="preserve" transform="translate(-127.0342659045368 236) scale(1) translate(247.2764534045368 -181) translate(-27 -29.999999999999996) translate(0 0) translate(-45.6845703125 0)" x="7" y="9.78564453125" font-family="sans-serif" font-size="10" font-weight="normal" text-anchor="undefined" fill="#ffffff">Person</text><rect transform="translate(-127.0342659045368 236) scale(1) translate(247.2764534045368 -181) translate(-27 -29.999999999999996) translate(0 0) translate(-37.33984375 16)" x="0" y="0" width="37.33984375" height="14" rx="7" ry="7" fill="#808080" stroke="none"></rect><text xml:space="preserve" transform="translate(-127.0342659045368 236) scale(1) translate(247.2764534045368 -181) translate(-27 -29.999999999999996) translate(0 0) translate(-37.33984375 16)" x="7" y="9.78564453125" font-family="sans-serif" font-size="10" font-weight="normal" text-anchor="undefined" fill="#ffffff">Actor</text><rect transform="translate(-127.0342659045368 236) scale(1) translate(247.2764534045368 -181) translate(-27 -29.999999999999996) translate(0 0) translate(-49.0048828125 32)" x="0" y="0" width="49.0048828125" height="14" rx="7" ry="7" fill="#808080" stroke="none"></rect><text xml:space="preserve" transform="translate(-127.0342659045368 236) scale(1) translate(247.2764534045368 -181) translate(-27 -29.999999999999996) translate(0 0) translate(-49.0048828125 32)" x="7" y="9.78564453125" font-family="sans-serif" font-size="10" font-weight="normal" text-anchor="undefined" fill="#ffffff">Director</text><rect transform="translate(-127.0342659045368 236) scale(1) translate(247.2764534045368 -181) translate(-27 -29.999999999999996) translate(0 48) translate(-93.2421875 0)" x="0" y="0" width="93.2421875" height="12" rx="0" ry="0" fill="white" stroke="none"></rect><text xml:space="preserve" transform="translate(-127.0342659045368 236) scale(1) translate(247.2764534045368 -181) translate(-27 -29.999999999999996) translate(0 48) translate(-93.2421875 0)" x="30.5712890625" y="8.78564453125" font-family="sans-serif" font-size="10" font-weight="normal" text-anchor="end" fill="#000000">name:</text><text xml:space="preserve" transform="translate(-127.0342659045368 236) scale(1) translate(247.2764534045368 -181) translate(-27 -29.999999999999996) translate(0 48) translate(-93.2421875 0)" x="33.349609375" y="8.78564453125" font-family="sans-serif" font-size="10" font-weight="normal" text-anchor="start" fill="#000000">"Tom Hanks"</text><circle transform="translate(-127.0342659045368 236) scale(1)" cx="440.2764534045368" cy="-181" r="26" fill="#d33115" stroke="#d33115" strokewidth="2"></circle><rect transform="translate(-127.0342659045368 236) scale(1) translate(440.2764534045368 -181) translate(1.6532731788489269e-15 -55) translate(0 0) translate(-20.33740234375 0)" x="0" y="0" width="40.6748046875" height="14" rx="7" ry="7" fill="#808080" stroke="none"></rect><text xml:space="preserve" transform="translate(-127.0342659045368 236) scale(1) translate(440.2764534045368 -181) translate(1.6532731788489269e-15 -55) translate(0 0) translate(-20.33740234375 0)" x="7" y="9.78564453125" font-family="sans-serif" font-size="10" font-weight="normal" text-anchor="undefined" fill="#ffffff">Movie</text><rect transform="translate(-127.0342659045368 236) scale(1) translate(440.2764534045368 -181) translate(1.6532731788489269e-15 -55) translate(0 16) translate(-37.72705078125 0)" x="0" y="0" width="75.4541015625" height="12" rx="0" ry="0" fill="white" stroke="none"></rect><text xml:space="preserve" transform="translate(-127.0342659045368 236) scale(1) translate(440.2764534045368 -181) translate(1.6532731788489269e-15 -55) translate(0 16) translate(-37.72705078125 0)" x="21.1181640625" y="8.78564453125" font-family="sans-serif" font-size="10" font-weight="normal" text-anchor="end" fill="#000000">title:</text><text xml:space="preserve" transform="translate(-127.0342659045368 236) scale(1) translate(440.2764534045368 -181) translate(1.6532731788489269e-15 -55) translate(0 16) translate(-37.72705078125 0)" x="23.896484375" y="8.78564453125" font-family="sans-serif" font-size="10" font-weight="normal" text-anchor="start" fill="#000000">"Toy Story"</text><circle transform="translate(-127.0342659045368 236) scale(1)" cx="633.2764534045368" cy="-181" r="26" fill="#68bc00" stroke="#68bc00" strokewidth="2"></circle><rect transform="translate(-127.0342659045368 236) scale(1) translate(633.2764534045368 -181) translate(27 -14) translate(0 0) translate(0 0)" x="0" y="0" width="41.79296875" height="14" rx="7" ry="7" fill="#808080" stroke="none"></rect><text xml:space="preserve" transform="translate(-127.0342659045368 236) scale(1) translate(633.2764534045368 -181) translate(27 -14) translate(0 0) translate(0 0)" x="7" y="9.78564453125" font-family="sans-serif" font-size="10" font-weight="normal" text-anchor="undefined" fill="#ffffff">Genre</text><rect transform="translate(-127.0342659045368 236) scale(1) translate(633.2764534045368 -181) translate(27 -14) translate(0 16) translate(0 0)" x="0" y="0" width="83.2470703125" height="12" rx="0" ry="0" fill="white" stroke="none"></rect><text xml:space="preserve" transform="translate(-127.0342659045368 236) scale(1) translate(633.2764534045368 -181) translate(27 -14) translate(0 16) translate(0 0)" x="33.349609375" y="8.78564453125" font-family="sans-serif" font-size="10" font-weight="normal" text-anchor="end" fill="#000000">name :</text><text xml:space="preserve" transform="translate(-127.0342659045368 236) scale(1) translate(633.2764534045368 -181) translate(27 -14) translate(0 16) translate(0 0)" x="36.1279296875" y="8.78564453125" font-family="sans-serif" font-size="10" font-weight="normal" text-anchor="start" fill="#000000">"Children"</text></svg>