<svg xmlns="http://www.w3.org/2000/svg" xmlns:xlink="http://www.w3.org/1999/xlink" width="490" height="123" viewbox="0 0 490 123"><path transform="translate(645.2421875 357.6318072150733) scale(1) translate(-525 -262) rotate(0)" d="M 27 0 L 230.55 0" fill="none" stroke="#A5ABB6" stroke-width="1"></path><polygon transform="translate(645.2421875 357.6318072150733) scale(1) translate(-525 -262) rotate(0) translate(240 0) rotate(0)" points="-9.45,0 -10.5,3.5 0,0 -10.5,-3.5" fill="undefined" stroke="none" stroke-width="1"></polygon><rect transform="translate(645.2421875 357.6318072150733) scale(1) translate(-396.225 -262) rotate(0) translate(0 -13) translate(0 0) translate(-26.7265625 0)" x="0" y="0" width="53.453125" height="14" rx="2" ry="2" fill="#ffffff" stroke="none"></rect><text xml:space="preserve" transform="translate(645.2421875 357.6318072150733) scale(1) translate(-396.225 -262) rotate(0) translate(0 -13) translate(0 0) translate(-26.7265625 0)" x="2" y="9.78564453125" font-family="sans-serif" font-size="10" font-weight="normal" text-anchor="left" fill="#000000">ACTED_IN</text><rect transform="translate(645.2421875 357.6318072150733) scale(1) translate(-396.225 -262) rotate(0) translate(0 -13) translate(0 14) translate(-49.30908203125 0)" x="0" y="0" width="98.6181640625" height="12" rx="0" ry="0" fill="white" stroke="none"></rect><text xml:space="preserve" transform="translate(645.2421875 357.6318072150733) scale(1) translate(-396.225 -262) rotate(0) translate(0 -13) translate(0 14) translate(-49.30908203125 0)" x="22.2314453125" y="8.78564453125" font-family="sans-serif" font-size="10" font-weight="normal" text-anchor="end" fill="#000000">role:</text><text xml:space="preserve" transform="translate(645.2421875 357.6318072150733) scale(1) translate(-396.225 -262) rotate(0) translate(0 -13) translate(0 14) translate(-49.30908203125 0)" x="25.009765625" y="8.78564453125" font-family="sans-serif" font-size="10" font-weight="normal" text-anchor="start" fill="#000000">"Woody (voice)"</text><path transform="translate(645.2421875 357.6318072150733) scale(1) translate(-525 -330.6318072150733) rotate(0)" d="M 27 0 L 230.55 0" fill="none" stroke="#A5ABB6" stroke-width="1"></path><polygon transform="translate(645.2421875 357.6318072150733) scale(1) translate(-525 -330.6318072150733) rotate(0) translate(240 0) rotate(0)" points="-9.45,0 -10.5,3.5 0,0 -10.5,-3.5" fill="undefined" stroke="none" stroke-width="1"></polygon><rect transform="translate(645.2421875 357.6318072150733) scale(1) translate(-396.225 -330.6318072150733) rotate(0) translate(0 -13) translate(0 0) translate(-15.61572265625 0)" x="0" y="0" width="31.2314453125" height="14" rx="2" ry="2" fill="#ffffff" stroke="none"></rect><text xml:space="preserve" transform="translate(645.2421875 357.6318072150733) scale(1) translate(-396.225 -330.6318072150733) rotate(0) translate(0 -13) translate(0 0) translate(-15.61572265625 0)" x="2" y="9.78564453125" font-family="sans-serif" font-size="10" font-weight="normal" text-anchor="left" fill="#000000">VERB</text><rect transform="translate(645.2421875 357.6318072150733) scale(1) translate(-396.225 -330.6318072150733) rotate(0) translate(0 -13) translate(0 14) translate(-20.8447265625 0)" x="0" y="0" width="41.689453125" height="12" rx="0" ry="0" fill="white" stroke="none"></rect><text xml:space="preserve" transform="translate(645.2421875 357.6318072150733) scale(1) translate(-396.225 -330.6318072150733) rotate(0) translate(0 -13) translate(0 14) translate(-20.8447265625 0)" x="36.1328125" y="8.78564453125" font-family="sans-serif" font-size="10" font-weight="normal" text-anchor="end" fill="#000000">adverb:</text><text xml:space="preserve" transform="translate(645.2421875 357.6318072150733) scale(1) translate(-396.225 -330.6318072150733) rotate(0) translate(0 -13) translate(0 14) translate(-20.8447265625 0)" x="38.9111328125" y="8.78564453125" font-family="sans-serif" font-size="10" font-weight="normal" text-anchor="start" fill="#000000"></text><circle transform="translate(645.2421875 357.6318072150733) scale(1)" cx="-525" cy="-262" r="26" fill="#4C8EDA" stroke="#2870c2" strokewidth="2"></circle><rect transform="translate(645.2421875 357.6318072150733) scale(1) translate(-525 -262) translate(-27 -13.999999999999996) translate(0 0) translate(-45.6845703125 0)" x="0" y="0" width="45.6845703125" height="14" rx="7" ry="7" fill="#808080" stroke="none"></rect><text xml:space="preserve" transform="translate(645.2421875 357.6318072150733) scale(1) translate(-525 -262) translate(-27 -13.999999999999996) translate(0 0) translate(-45.6845703125 0)" x="7" y="9.78564453125" font-family="sans-serif" font-size="10" font-weight="normal" text-anchor="undefined" fill="#ffffff">Person</text><rect transform="translate(645.2421875 357.6318072150733) scale(1) translate(-525 -262) translate(-27 -13.999999999999996) translate(0 16) translate(-93.2421875 0)" x="0" y="0" width="93.2421875" height="12" rx="0" ry="0" fill="white" stroke="none"></rect><text xml:space="preserve" transform="translate(645.2421875 357.6318072150733) scale(1) translate(-525 -262) translate(-27 -13.999999999999996) translate(0 16) translate(-93.2421875 0)" x="30.5712890625" y="8.78564453125" font-family="sans-serif" font-size="10" font-weight="normal" text-anchor="end" fill="#000000">name:</text><text xml:space="preserve" transform="translate(645.2421875 357.6318072150733) scale(1) translate(-525 -262) translate(-27 -13.999999999999996) translate(0 16) translate(-93.2421875 0)" x="33.349609375" y="8.78564453125" font-family="sans-serif" font-size="10" font-weight="normal" text-anchor="start" fill="#000000">"Tom Hanks"</text><circle transform="translate(645.2421875 357.6318072150733) scale(1)" cx="-258" cy="-262" r="26" fill="#d33115" stroke="#d33115" strokewidth="2"></circle><rect transform="translate(645.2421875 357.6318072150733) scale(1) translate(-258 -262) translate(27 -14) translate(0 0) translate(0 0)" x="0" y="0" width="40.6748046875" height="14" rx="7" ry="7" fill="#808080" stroke="none"></rect><text xml:space="preserve" transform="translate(645.2421875 357.6318072150733) scale(1) translate(-258 -262) translate(27 -14) translate(0 0) translate(0 0)" x="7" y="9.78564453125" font-family="sans-serif" font-size="10" font-weight="normal" text-anchor="undefined" fill="#ffffff">Movie</text><rect transform="translate(645.2421875 357.6318072150733) scale(1) translate(-258 -262) translate(27 -14) translate(0 16) translate(0 0)" x="0" y="0" width="75.4541015625" height="12" rx="0" ry="0" fill="white" stroke="none"></rect><text xml:space="preserve" transform="translate(645.2421875 357.6318072150733) scale(1) translate(-258 -262) translate(27 -14) translate(0 16) translate(0 0)" x="21.1181640625" y="8.78564453125" font-family="sans-serif" font-size="10" font-weight="normal" text-anchor="end" fill="#000000">title:</text><text xml:space="preserve" transform="translate(645.2421875 357.6318072150733) scale(1) translate(-258 -262) translate(27 -14) translate(0 16) translate(0 0)" x="23.896484375" y="8.78564453125" font-family="sans-serif" font-size="10" font-weight="normal" text-anchor="start" fill="#000000">"Toy Story"</text><circle transform="translate(645.2421875 357.6318072150733) scale(1)" cx="-525" cy="-330.6318072150733" r="26" fill="#4C8EDA" stroke="#2870c2" strokewidth="2"></circle><rect transform="translate(645.2421875 357.6318072150733) scale(1) translate(-525 -330.6318072150733) translate(-27 -13.999999999999996) translate(0 0) translate(-37.90625 0)" x="0" y="0" width="37.90625" height="14" rx="7" ry="7" fill="#808080" stroke="none"></rect><text xml:space="preserve" transform="translate(645.2421875 357.6318072150733) scale(1) translate(-525 -330.6318072150733) translate(-27 -13.999999999999996) translate(0 0) translate(-37.90625 0)" x="7" y="9.78564453125" font-family="sans-serif" font-size="10" font-weight="normal" text-anchor="undefined" fill="#ffffff">Noun</text><rect transform="translate(645.2421875 357.6318072150733) scale(1) translate(-525 -330.6318072150733) translate(-27 -13.999999999999996) translate(0 16) translate(-50.5810546875 0)" x="0" y="0" width="50.5810546875" height="12" rx="0" ry="0" fill="white" stroke="none"></rect><text xml:space="preserve" transform="translate(645.2421875 357.6318072150733) scale(1) translate(-525 -330.6318072150733) translate(-27 -13.999999999999996) translate(0 16) translate(-50.5810546875 0)" x="45.0244140625" y="8.78564453125" font-family="sans-serif" font-size="10" font-weight="normal" text-anchor="end" fill="#000000">adjective:</text><text xml:space="preserve" transform="translate(645.2421875 357.6318072150733) scale(1) translate(-525 -330.6318072150733) translate(-27 -13.999999999999996) translate(0 16) translate(-50.5810546875 0)" x="47.802734375" y="8.78564453125" font-family="sans-serif" font-size="10" font-weight="normal" text-anchor="start" fill="#000000"></text><circle transform="translate(645.2421875 357.6318072150733) scale(1)" cx="-258" cy="-330.6318072150733" r="26" fill="#d33115" stroke="#d33115" strokewidth="2"></circle><rect transform="translate(645.2421875 357.6318072150733) scale(1) translate(-258 -330.6318072150733) translate(27 -14) translate(0 0) translate(0 0)" x="0" y="0" width="37.90625" height="14" rx="7" ry="7" fill="#808080" stroke="none"></rect><text xml:space="preserve" transform="translate(645.2421875 357.6318072150733) scale(1) translate(-258 -330.6318072150733) translate(27 -14) translate(0 0) translate(0 0)" x="7" y="9.78564453125" font-family="sans-serif" font-size="10" font-weight="normal" text-anchor="undefined" fill="#ffffff">Noun</text><rect transform="translate(645.2421875 357.6318072150733) scale(1) translate(-258 -330.6318072150733) translate(27 -14) translate(0 16) translate(0 0)" x="0" y="0" width="50.5810546875" height="12" rx="0" ry="0" fill="white" stroke="none"></rect><text xml:space="preserve" transform="translate(645.2421875 357.6318072150733) scale(1) translate(-258 -330.6318072150733) translate(27 -14) translate(0 16) translate(0 0)" x="45.0244140625" y="8.78564453125" font-family="sans-serif" font-size="10" font-weight="normal" text-anchor="end" fill="#000000">adjective:</text><text xml:space="preserve" transform="translate(645.2421875 357.6318072150733) scale(1) translate(-258 -330.6318072150733) translate(27 -14) translate(0 16) translate(0 0)" x="47.802734375" y="8.78564453125" font-family="sans-serif" font-size="10" font-weight="normal" text-anchor="start" fill="#000000"></text></svg>